<svg xmlns="http://www.w3.org/2000/svg" xmlns:xlink="http://www.w3.org/1999/xlink" zoomAndPan="magnify" preserveAspectRatio="xMidYMid meet" version="1.0" viewBox="73.64 165.83 229.69 38.92"><defs><g/></defs><g fill="#6a4c42" fill-opacity="0.4"><g transform="translate(73.835616, 204.490079)"><g><path d="M 11.75 0 C 10.695312 0 9.707031 -0.164062 8.78125 -0.5 C 7.882812 -0.820312 7.070312 -1.328125 6.34375 -2.015625 C 5.625 -2.710938 4.976562 -3.554688 4.40625 -4.546875 C 3.414062 -6.316406 2.710938 -8.523438 2.296875 -11.171875 C 2.117188 -12.398438 1.988281 -13.5625 1.90625 -14.65625 C 1.832031 -15.75 1.796875 -16.820312 1.796875 -17.875 L 1.796875 -18.46875 C 1.859375 -20.800781 1.992188 -22.78125 2.203125 -24.40625 C 2.328125 -25.28125 2.507812 -26.171875 2.75 -27.078125 C 2.988281 -27.992188 3.273438 -28.90625 3.609375 -29.8125 C 3.929688 -30.738281 4.335938 -31.5625 4.828125 -32.28125 C 5.328125 -33.007812 5.878906 -33.65625 6.484375 -34.21875 C 7.171875 -34.820312 7.925781 -35.316406 8.75 -35.703125 C 9.582031 -36.097656 10.492188 -36.351562 11.484375 -36.46875 C 11.722656 -36.5 11.945312 -36.515625 12.15625 -36.515625 C 12.363281 -36.515625 12.570312 -36.515625 12.78125 -36.515625 C 13.832031 -36.515625 14.753906 -36.382812 15.546875 -36.125 C 16.347656 -35.875 17.035156 -35.523438 17.609375 -35.078125 C 18.929688 -33.992188 19.863281 -32.117188 20.40625 -29.453125 C 20.488281 -29.054688 20.53125 -28.585938 20.53125 -28.046875 L 20.53125 -27.921875 C 20.53125 -27.410156 20.441406 -26.929688 20.265625 -26.484375 C 20.140625 -26.085938 19.921875 -25.835938 19.609375 -25.734375 C 19.296875 -25.628906 19.035156 -25.578125 18.828125 -25.578125 L 18.78125 -25.578125 C 17.96875 -25.722656 17.375 -26.1875 17 -26.96875 C 16.625 -27.75 16.332031 -28.5625 16.125 -29.40625 C 15.882812 -30.300781 15.613281 -30.992188 15.3125 -31.484375 L 14.859375 -31.96875 C 14.492188 -32.238281 14.132812 -32.375 13.78125 -32.375 C 13.539062 -32.375 13.332031 -32.332031 13.15625 -32.25 L 13.109375 -32.25 L 12.78125 -32.15625 L 12.421875 -32.015625 C 11.222656 -31.472656 10.25 -30.347656 9.5 -28.640625 C 9.195312 -27.859375 8.929688 -26.960938 8.703125 -25.953125 C 8.484375 -24.953125 8.328125 -23.835938 8.234375 -22.609375 C 8.210938 -22.128906 8.191406 -21.644531 8.171875 -21.15625 C 8.160156 -20.675781 8.15625 -20.179688 8.15625 -19.671875 C 8.15625 -18.953125 8.175781 -18.285156 8.21875 -17.671875 C 8.257812 -17.054688 8.3125 -16.476562 8.375 -15.9375 C 8.46875 -14.851562 8.570312 -13.867188 8.6875 -12.984375 C 8.8125 -12.097656 8.945312 -11.3125 9.09375 -10.625 C 9.21875 -10.113281 9.382812 -9.5 9.59375 -8.78125 C 9.800781 -8.0625 10.078125 -7.351562 10.421875 -6.65625 C 10.765625 -5.96875 11.191406 -5.382812 11.703125 -4.90625 C 12.066406 -4.632812 12.472656 -4.5 12.921875 -4.5 C 13.253906 -4.5 13.644531 -4.585938 14.09375 -4.765625 C 14.90625 -5.304688 15.46875 -6.003906 15.78125 -6.859375 C 16.09375 -7.722656 16.34375 -8.664062 16.53125 -9.6875 C 16.613281 -10.488281 16.78125 -11.242188 17.03125 -11.953125 C 17.289062 -12.660156 17.828125 -13.070312 18.640625 -13.1875 L 18.734375 -13.1875 C 19.421875 -13.1875 19.960938 -12.875 20.359375 -12.25 C 20.597656 -11.800781 20.71875 -11.242188 20.71875 -10.578125 L 20.71875 -10.453125 C 20.65625 -9.703125 20.59375 -9.144531 20.53125 -8.78125 C 20.445312 -8.332031 20.273438 -7.6875 20.015625 -6.84375 C 19.765625 -6 19.394531 -5.125 18.90625 -4.21875 C 18.425781 -3.320312 17.769531 -2.53125 16.9375 -1.84375 L 16.890625 -1.84375 C 16.078125 -1.21875 15.234375 -0.753906 14.359375 -0.453125 C 13.492188 -0.148438 12.625 0 11.75 0 Z M 11.75 0 "/></g></g></g><g fill="#6a4c42" fill-opacity="0.4"><g transform="translate(95.446843, 204.490079)"><g><path d="M 12.015625 0 C 11.453125 0 10.835938 -0.0703125 10.171875 -0.21875 C 8.734375 -0.4375 7.519531 -1.039062 6.53125 -2.03125 C 5.0625 -3.5 3.90625 -5.796875 3.0625 -8.921875 C 2.757812 -10.023438 2.503906 -11.207031 2.296875 -12.46875 C 2.085938 -13.726562 1.953125 -15.066406 1.890625 -16.484375 L 1.890625 -16.609375 C 1.859375 -17.035156 1.832031 -17.425781 1.8125 -17.78125 C 1.800781 -18.144531 1.796875 -18.507812 1.796875 -18.875 C 1.796875 -19.914062 1.832031 -20.945312 1.90625 -21.96875 C 1.988281 -22.988281 2.117188 -23.96875 2.296875 -24.90625 C 2.742188 -27.695312 3.613281 -30.097656 4.90625 -32.109375 L 4.953125 -32.109375 C 6.003906 -33.671875 7.25 -34.734375 8.6875 -35.296875 C 9.257812 -35.566406 9.859375 -35.757812 10.484375 -35.875 C 11.117188 -36 11.78125 -36.0625 12.46875 -36.0625 C 12.675781 -36.0625 12.878906 -36.054688 13.078125 -36.046875 C 13.273438 -36.035156 13.476562 -36.015625 13.6875 -35.984375 C 15.632812 -35.773438 17.179688 -35.082031 18.328125 -33.90625 C 19.347656 -32.820312 20.203125 -31.441406 20.890625 -29.765625 C 21.429688 -28.378906 21.835938 -26.832031 22.109375 -25.125 C 22.472656 -22.78125 22.65625 -20.585938 22.65625 -18.546875 C 22.65625 -17.140625 22.570312 -15.691406 22.40625 -14.203125 C 22.238281 -12.722656 21.988281 -11.234375 21.65625 -9.734375 L 21.65625 -9.6875 C 21.175781 -7.789062 20.488281 -6.109375 19.59375 -4.640625 C 18.601562 -2.984375 17.367188 -1.753906 15.890625 -0.953125 C 14.816406 -0.316406 13.523438 0 12.015625 0 Z M 8.375 -19.09375 C 8.375 -17.082031 8.507812 -15.054688 8.78125 -13.015625 C 9.195312 -10.335938 9.84375 -8.160156 10.71875 -6.484375 C 11.4375 -5.128906 12.1875 -4.410156 12.96875 -4.328125 L 13.109375 -4.328125 C 13.140625 -4.296875 13.179688 -4.28125 13.234375 -4.28125 C 13.898438 -4.28125 14.546875 -4.59375 15.171875 -5.21875 C 15.984375 -6 16.613281 -6.960938 17.0625 -8.109375 L 17.34375 -8.828125 C 17.519531 -9.515625 17.675781 -10.332031 17.8125 -11.28125 C 17.945312 -12.226562 18.054688 -13.164062 18.140625 -14.09375 C 18.234375 -15 18.296875 -15.878906 18.328125 -16.734375 C 18.359375 -17.585938 18.375 -18.421875 18.375 -19.234375 C 18.375 -19.585938 18.375 -19.9375 18.375 -20.28125 C 18.375 -20.625 18.359375 -20.976562 18.328125 -21.34375 C 18.234375 -24.101562 17.890625 -26.382812 17.296875 -28.1875 C 16.660156 -30.113281 15.757812 -31.34375 14.59375 -31.875 C 14.257812 -32 13.925781 -32.0625 13.59375 -32.0625 C 13.144531 -32.0625 12.753906 -31.957031 12.421875 -31.75 C 11.109375 -30.96875 10.117188 -29.644531 9.453125 -27.78125 C 9.179688 -26.851562 8.957031 -25.828125 8.78125 -24.703125 C 8.601562 -23.578125 8.484375 -22.320312 8.421875 -20.9375 C 8.390625 -20.632812 8.375 -20.328125 8.375 -20.015625 C 8.375 -19.703125 8.375 -19.394531 8.375 -19.09375 Z M 8.375 -19.09375 "/></g></g></g><g fill="#6a4c42" fill-opacity="0.4"><g transform="translate(119.894535, 204.490079)"><g><path d="M 11.75 0 C 10.695312 0 9.707031 -0.164062 8.78125 -0.5 C 7.882812 -0.820312 7.070312 -1.328125 6.34375 -2.015625 C 5.625 -2.710938 4.976562 -3.554688 4.40625 -4.546875 C 3.414062 -6.316406 2.710938 -8.523438 2.296875 -11.171875 C 2.117188 -12.398438 1.988281 -13.5625 1.90625 -14.65625 C 1.832031 -15.75 1.796875 -16.820312 1.796875 -17.875 L 1.796875 -18.46875 C 1.859375 -20.800781 1.992188 -22.78125 2.203125 -24.40625 C 2.328125 -25.28125 2.507812 -26.171875 2.75 -27.078125 C 2.988281 -27.992188 3.273438 -28.90625 3.609375 -29.8125 C 3.929688 -30.738281 4.335938 -31.5625 4.828125 -32.28125 C 5.328125 -33.007812 5.878906 -33.65625 6.484375 -34.21875 C 7.171875 -34.820312 7.925781 -35.316406 8.75 -35.703125 C 9.582031 -36.097656 10.492188 -36.351562 11.484375 -36.46875 C 11.722656 -36.5 11.945312 -36.515625 12.15625 -36.515625 C 12.363281 -36.515625 12.570312 -36.515625 12.78125 -36.515625 C 13.832031 -36.515625 14.753906 -36.382812 15.546875 -36.125 C 16.347656 -35.875 17.035156 -35.523438 17.609375 -35.078125 C 18.929688 -33.992188 19.863281 -32.117188 20.40625 -29.453125 C 20.488281 -29.054688 20.53125 -28.585938 20.53125 -28.046875 L 20.53125 -27.921875 C 20.53125 -27.410156 20.441406 -26.929688 20.265625 -26.484375 C 20.140625 -26.085938 19.921875 -25.835938 19.609375 -25.734375 C 19.296875 -25.628906 19.035156 -25.578125 18.828125 -25.578125 L 18.78125 -25.578125 C 17.96875 -25.722656 17.375 -26.1875 17 -26.96875 C 16.625 -27.75 16.332031 -28.5625 16.125 -29.40625 C 15.882812 -30.300781 15.613281 -30.992188 15.3125 -31.484375 L 14.859375 -31.96875 C 14.492188 -32.238281 14.132812 -32.375 13.78125 -32.375 C 13.539062 -32.375 13.332031 -32.332031 13.15625 -32.25 L 13.109375 -32.25 L 12.78125 -32.15625 L 12.421875 -32.015625 C 11.222656 -31.472656 10.25 -30.347656 9.5 -28.640625 C 9.195312 -27.859375 8.929688 -26.960938 8.703125 -25.953125 C 8.484375 -24.953125 8.328125 -23.835938 8.234375 -22.609375 C 8.210938 -22.128906 8.191406 -21.644531 8.171875 -21.15625 C 8.160156 -20.675781 8.15625 -20.179688 8.15625 -19.671875 C 8.15625 -18.953125 8.175781 -18.285156 8.21875 -17.671875 C 8.257812 -17.054688 8.3125 -16.476562 8.375 -15.9375 C 8.46875 -14.851562 8.570312 -13.867188 8.6875 -12.984375 C 8.8125 -12.097656 8.945312 -11.3125 9.09375 -10.625 C 9.21875 -10.113281 9.382812 -9.5 9.59375 -8.78125 C 9.800781 -8.0625 10.078125 -7.351562 10.421875 -6.65625 C 10.765625 -5.96875 11.191406 -5.382812 11.703125 -4.90625 C 12.066406 -4.632812 12.472656 -4.5 12.921875 -4.5 C 13.253906 -4.5 13.644531 -4.585938 14.09375 -4.765625 C 14.90625 -5.304688 15.46875 -6.003906 15.78125 -6.859375 C 16.09375 -7.722656 16.34375 -8.664062 16.53125 -9.6875 C 16.613281 -10.488281 16.78125 -11.242188 17.03125 -11.953125 C 17.289062 -12.660156 17.828125 -13.070312 18.640625 -13.1875 L 18.734375 -13.1875 C 19.421875 -13.1875 19.960938 -12.875 20.359375 -12.25 C 20.597656 -11.800781 20.71875 -11.242188 20.71875 -10.578125 L 20.71875 -10.453125 C 20.65625 -9.703125 20.59375 -9.144531 20.53125 -8.78125 C 20.445312 -8.332031 20.273438 -7.6875 20.015625 -6.84375 C 19.765625 -6 19.394531 -5.125 18.90625 -4.21875 C 18.425781 -3.320312 17.769531 -2.53125 16.9375 -1.84375 L 16.890625 -1.84375 C 16.078125 -1.21875 15.234375 -0.753906 14.359375 -0.453125 C 13.492188 -0.148438 12.625 0 11.75 0 Z M 11.75 0 "/></g></g></g><g fill="#6a4c42" fill-opacity="0.4"><g transform="translate(141.505762, 204.490079)"><g><path d="M 12.015625 0 C 11.453125 0 10.835938 -0.0703125 10.171875 -0.21875 C 8.734375 -0.4375 7.519531 -1.039062 6.53125 -2.03125 C 5.0625 -3.5 3.90625 -5.796875 3.0625 -8.921875 C 2.757812 -10.023438 2.503906 -11.207031 2.296875 -12.46875 C 2.085938 -13.726562 1.953125 -15.066406 1.890625 -16.484375 L 1.890625 -16.609375 C 1.859375 -17.035156 1.832031 -17.425781 1.8125 -17.78125 C 1.800781 -18.144531 1.796875 -18.507812 1.796875 -18.875 C 1.796875 -19.914062 1.832031 -20.945312 1.90625 -21.96875 C 1.988281 -22.988281 2.117188 -23.96875 2.296875 -24.90625 C 2.742188 -27.695312 3.613281 -30.097656 4.90625 -32.109375 L 4.953125 -32.109375 C 6.003906 -33.671875 7.25 -34.734375 8.6875 -35.296875 C 9.257812 -35.566406 9.859375 -35.757812 10.484375 -35.875 C 11.117188 -36 11.78125 -36.0625 12.46875 -36.0625 C 12.675781 -36.0625 12.878906 -36.054688 13.078125 -36.046875 C 13.273438 -36.035156 13.476562 -36.015625 13.6875 -35.984375 C 15.632812 -35.773438 17.179688 -35.082031 18.328125 -33.90625 C 19.347656 -32.820312 20.203125 -31.441406 20.890625 -29.765625 C 21.429688 -28.378906 21.835938 -26.832031 22.109375 -25.125 C 22.472656 -22.78125 22.65625 -20.585938 22.65625 -18.546875 C 22.65625 -17.140625 22.570312 -15.691406 22.40625 -14.203125 C 22.238281 -12.722656 21.988281 -11.234375 21.65625 -9.734375 L 21.65625 -9.6875 C 21.175781 -7.789062 20.488281 -6.109375 19.59375 -4.640625 C 18.601562 -2.984375 17.367188 -1.753906 15.890625 -0.953125 C 14.816406 -0.316406 13.523438 0 12.015625 0 Z M 8.375 -19.09375 C 8.375 -17.082031 8.507812 -15.054688 8.78125 -13.015625 C 9.195312 -10.335938 9.84375 -8.160156 10.71875 -6.484375 C 11.4375 -5.128906 12.1875 -4.410156 12.96875 -4.328125 L 13.109375 -4.328125 C 13.140625 -4.296875 13.179688 -4.28125 13.234375 -4.28125 C 13.898438 -4.28125 14.546875 -4.59375 15.171875 -5.21875 C 15.984375 -6 16.613281 -6.960938 17.0625 -8.109375 L 17.34375 -8.828125 C 17.519531 -9.515625 17.675781 -10.332031 17.8125 -11.28125 C 17.945312 -12.226562 18.054688 -13.164062 18.140625 -14.09375 C 18.234375 -15 18.296875 -15.878906 18.328125 -16.734375 C 18.359375 -17.585938 18.375 -18.421875 18.375 -19.234375 C 18.375 -19.585938 18.375 -19.9375 18.375 -20.28125 C 18.375 -20.625 18.359375 -20.976562 18.328125 -21.34375 C 18.234375 -24.101562 17.890625 -26.382812 17.296875 -28.1875 C 16.660156 -30.113281 15.757812 -31.34375 14.59375 -31.875 C 14.257812 -32 13.925781 -32.0625 13.59375 -32.0625 C 13.144531 -32.0625 12.753906 -31.957031 12.421875 -31.75 C 11.109375 -30.96875 10.117188 -29.644531 9.453125 -27.78125 C 9.179688 -26.851562 8.957031 -25.828125 8.78125 -24.703125 C 8.601562 -23.578125 8.484375 -22.320312 8.421875 -20.9375 C 8.390625 -20.632812 8.375 -20.328125 8.375 -20.015625 C 8.375 -19.703125 8.375 -19.394531 8.375 -19.09375 Z M 8.375 -19.09375 "/></g></g></g><g fill="#6a4c42" fill-opacity="0.4"><g transform="translate(165.953454, 204.490079)"><g><path d="M 4.6875 0 C 4.257812 -0.03125 3.804688 -0.132812 3.328125 -0.3125 C 2.847656 -0.488281 2.472656 -0.832031 2.203125 -1.34375 C 1.929688 -1.882812 1.796875 -2.519531 1.796875 -3.25 C 1.796875 -3.394531 1.796875 -3.539062 1.796875 -3.6875 C 1.796875 -3.84375 1.8125 -4.007812 1.84375 -4.1875 C 2.175781 -6.769531 2.546875 -9.410156 2.953125 -12.109375 C 3.359375 -14.816406 3.800781 -17.445312 4.28125 -20 C 4.875 -23.113281 5.476562 -25.773438 6.09375 -27.984375 C 6.71875 -30.191406 7.359375 -32.03125 8.015625 -33.5 C 8.859375 -34.96875 9.878906 -35.796875 11.078125 -35.984375 C 11.203125 -36.015625 11.316406 -36.03125 11.421875 -36.03125 C 11.523438 -36.03125 11.617188 -36.03125 11.703125 -36.03125 C 12.722656 -36.03125 13.757812 -35.59375 14.8125 -34.71875 C 15.800781 -33.726562 16.691406 -32.226562 17.484375 -30.21875 C 18.285156 -28.207031 19.003906 -25.625 19.640625 -22.46875 C 20.171875 -19.851562 20.609375 -17.164062 20.953125 -14.40625 C 21.304688 -11.644531 21.601562 -9.09375 21.84375 -6.75 L 22.015625 -5.171875 C 22.046875 -4.992188 22.0625 -4.828125 22.0625 -4.671875 C 22.0625 -4.523438 22.0625 -4.363281 22.0625 -4.1875 C 22.0625 -3.707031 22.019531 -3.210938 21.9375 -2.703125 C 21.75 -1.648438 21.113281 -0.957031 20.03125 -0.625 L 19.59375 -0.625 C 18.988281 -0.625 18.503906 -0.863281 18.140625 -1.34375 C 17.785156 -1.882812 17.5625 -2.503906 17.46875 -3.203125 C 17.257812 -5.566406 17.035156 -7.648438 16.796875 -9.453125 L 9.046875 -8.59375 C 8.929688 -7.820312 8.820312 -7.035156 8.71875 -6.234375 C 8.613281 -5.441406 8.515625 -4.625 8.421875 -3.78125 C 8.296875 -2.644531 7.953125 -1.742188 7.390625 -1.078125 C 6.753906 -0.359375 5.851562 0 4.6875 0 Z M 9.765625 -12.921875 L 16.25 -13.546875 L 16.21875 -13.78125 C 16.03125 -14.914062 15.832031 -16.195312 15.625 -17.625 C 15.414062 -19.050781 15.175781 -20.484375 14.90625 -21.921875 C 14.632812 -23.367188 14.351562 -24.695312 14.0625 -25.90625 C 13.78125 -27.125 13.488281 -28.109375 13.1875 -28.859375 C 13.132812 -29.046875 13.082031 -29.179688 13.03125 -29.265625 C 12.988281 -29.359375 12.953125 -29.421875 12.921875 -29.453125 L 12.828125 -29.40625 C 12.554688 -28.050781 12.234375 -26.425781 11.859375 -24.53125 C 11.484375 -22.644531 11.113281 -20.6875 10.75 -18.65625 C 10.394531 -16.632812 10.066406 -14.722656 9.765625 -12.921875 Z M 9.765625 -12.921875 "/></g></g></g><g fill="#6a4c42" fill-opacity="0.4"><g transform="translate(189.81608, 204.490079)"><g><path d="M 7.4375 0.265625 C 6.59375 0.265625 5.8125 0.175781 5.09375 0 L 4.734375 0 C 4.222656 0 3.769531 -0.160156 3.375 -0.484375 C 2.988281 -0.816406 2.675781 -1.210938 2.4375 -1.671875 C 2.007812 -2.421875 1.796875 -3.378906 1.796875 -4.546875 L 1.796875 -5.40625 C 1.796875 -5.757812 1.800781 -6.117188 1.8125 -6.484375 C 1.832031 -6.847656 1.859375 -7.222656 1.890625 -7.609375 C 1.921875 -7.847656 1.9375 -8.085938 1.9375 -8.328125 C 1.9375 -8.566406 1.9375 -8.789062 1.9375 -9 C 1.96875 -9.664062 1.984375 -10.328125 1.984375 -10.984375 C 1.984375 -11.648438 1.984375 -12.3125 1.984375 -12.96875 C 1.984375 -13.65625 1.972656 -14.335938 1.953125 -15.015625 C 1.941406 -15.691406 1.9375 -16.347656 1.9375 -16.984375 L 1.9375 -17.34375 C 1.9375 -17.875 1.925781 -18.398438 1.90625 -18.921875 C 1.894531 -19.453125 1.890625 -19.929688 1.890625 -20.359375 C 1.890625 -21.222656 1.878906 -22.097656 1.859375 -22.984375 C 1.847656 -23.867188 1.84375 -24.765625 1.84375 -25.671875 L 1.84375 -25.9375 C 1.84375 -26.269531 1.832031 -26.582031 1.8125 -26.875 C 1.800781 -27.175781 1.796875 -27.476562 1.796875 -27.78125 L 1.796875 -30.890625 C 1.796875 -31.128906 1.800781 -31.351562 1.8125 -31.5625 C 1.832031 -31.769531 1.859375 -31.984375 1.890625 -32.203125 L 1.890625 -33.90625 C 1.890625 -34.175781 1.957031 -34.429688 2.09375 -34.671875 C 2.226562 -34.910156 2.382812 -35.117188 2.5625 -35.296875 C 2.769531 -35.546875 3.015625 -35.734375 3.296875 -35.859375 C 3.585938 -35.992188 3.898438 -36.125 4.234375 -36.25 C 4.953125 -36.425781 5.734375 -36.515625 6.578125 -36.515625 C 6.992188 -36.515625 7.40625 -36.492188 7.8125 -36.453125 C 8.21875 -36.410156 8.628906 -36.359375 9.046875 -36.296875 C 11.328125 -35.847656 13.207031 -35.113281 14.6875 -34.09375 C 16.09375 -33.15625 17.082031 -32.03125 17.65625 -30.71875 C 18.132812 -29.664062 18.375 -28.644531 18.375 -27.65625 C 18.375 -27.53125 18.375 -27.390625 18.375 -27.234375 C 18.375 -27.085938 18.359375 -26.957031 18.328125 -26.84375 C 18.265625 -26.207031 18.132812 -25.570312 17.9375 -24.9375 C 17.75 -24.3125 17.488281 -23.710938 17.15625 -23.140625 L 17.109375 -22.96875 C 16.296875 -21.707031 15.066406 -20.550781 13.421875 -19.5 C 15.523438 -18.144531 17.039062 -16.613281 17.96875 -14.90625 L 18.015625 -14.71875 C 18.347656 -14.125 18.609375 -13.472656 18.796875 -12.765625 C 18.992188 -12.054688 19.125 -11.3125 19.1875 -10.53125 C 19.21875 -10.414062 19.234375 -10.289062 19.234375 -10.15625 C 19.234375 -10.019531 19.234375 -9.878906 19.234375 -9.734375 C 19.234375 -9.160156 19.171875 -8.578125 19.046875 -7.984375 C 18.929688 -7.398438 18.753906 -6.828125 18.515625 -6.265625 C 17.941406 -4.734375 16.945312 -3.472656 15.53125 -2.484375 C 14.09375 -1.304688 12.21875 -0.460938 9.90625 0.046875 C 9.488281 0.109375 9.078125 0.160156 8.671875 0.203125 C 8.265625 0.242188 7.851562 0.265625 7.4375 0.265625 Z M 8.46875 -22.609375 C 8.46875 -22.484375 8.46875 -22.351562 8.46875 -22.21875 C 8.46875 -22.082031 8.484375 -21.941406 8.515625 -21.796875 L 8.59375 -21.53125 C 8.925781 -21.5 9.289062 -21.40625 9.6875 -21.25 C 9.832031 -21.3125 10.003906 -21.394531 10.203125 -21.5 C 10.398438 -21.601562 10.644531 -21.75 10.9375 -21.9375 C 12.320312 -22.957031 13.238281 -24.15625 13.6875 -25.53125 C 13.894531 -26.132812 14 -26.75 14 -27.375 L 14 -28.046875 C 13.882812 -29.046875 13.492188 -29.925781 12.828125 -30.6875 C 12.171875 -31.457031 11.285156 -32.066406 10.171875 -32.515625 C 9.929688 -32.578125 9.722656 -32.628906 9.546875 -32.671875 C 9.367188 -32.710938 9.203125 -32.734375 9.046875 -32.734375 C 9.046875 -32.734375 9.035156 -32.722656 9.015625 -32.703125 C 9.003906 -32.691406 8.972656 -32.6875 8.921875 -32.6875 C 8.703125 -32.601562 8.582031 -32.441406 8.5625 -32.203125 C 8.5 -32.015625 8.46875 -31.832031 8.46875 -31.65625 L 8.46875 -31.296875 C 8.46875 -30.640625 8.488281 -29.960938 8.53125 -29.265625 C 8.570312 -28.578125 8.59375 -27.890625 8.59375 -27.203125 C 8.59375 -26.722656 8.585938 -26.21875 8.578125 -25.6875 C 8.566406 -25.164062 8.5625 -24.664062 8.5625 -24.1875 L 8.5625 -23.828125 C 8.53125 -23.765625 8.515625 -23.679688 8.515625 -23.578125 C 8.515625 -23.472656 8.515625 -23.390625 8.515625 -23.328125 L 8.515625 -23.28125 C 8.515625 -23.15625 8.503906 -23.03125 8.484375 -22.90625 C 8.472656 -22.789062 8.46875 -22.691406 8.46875 -22.609375 Z M 8.59375 -5.21875 C 8.59375 -4.976562 8.625 -4.738281 8.6875 -4.5 C 8.71875 -4.289062 8.851562 -4.125 9.09375 -4 C 9.15625 -4 9.203125 -3.992188 9.234375 -3.984375 C 9.265625 -3.972656 9.28125 -3.96875 9.28125 -3.96875 C 9.582031 -3.96875 10 -4.054688 10.53125 -4.234375 C 11.769531 -4.742188 12.769531 -5.429688 13.53125 -6.296875 C 14.300781 -7.171875 14.742188 -8.164062 14.859375 -9.28125 L 14.859375 -10 C 14.859375 -10.351562 14.832031 -10.703125 14.78125 -11.046875 C 14.738281 -11.398438 14.644531 -11.753906 14.5 -12.109375 C 14.257812 -12.828125 13.875 -13.523438 13.34375 -14.203125 C 12.820312 -14.878906 12.171875 -15.503906 11.390625 -16.078125 C 10.734375 -16.492188 10.238281 -16.75 9.90625 -16.84375 C 9.570312 -16.9375 9.378906 -16.984375 9.328125 -16.984375 L 9.28125 -16.984375 C 9.070312 -16.953125 8.921875 -16.859375 8.828125 -16.703125 C 8.734375 -16.554688 8.671875 -16.40625 8.640625 -16.25 C 8.609375 -16.132812 8.59375 -16 8.59375 -15.84375 C 8.59375 -15.695312 8.59375 -15.550781 8.59375 -15.40625 C 8.59375 -15.28125 8.597656 -15.140625 8.609375 -14.984375 C 8.628906 -14.835938 8.640625 -14.707031 8.640625 -14.59375 L 8.640625 -14.546875 C 8.640625 -14.484375 8.640625 -14.390625 8.640625 -14.265625 C 8.640625 -14.148438 8.65625 -14.0625 8.6875 -14 L 8.6875 -13.59375 C 8.6875 -13.03125 8.691406 -12.46875 8.703125 -11.90625 C 8.722656 -11.351562 8.734375 -10.773438 8.734375 -10.171875 C 8.734375 -9.421875 8.707031 -8.65625 8.65625 -7.875 C 8.613281 -7.09375 8.59375 -6.3125 8.59375 -5.53125 Z M 8.59375 -5.21875 "/></g></g></g><g fill="#6a4c42" fill-opacity="0.4"><g transform="translate(209.491299, 204.490079)"><g><path d="M 4.734375 0 C 4.222656 0 3.769531 -0.160156 3.375 -0.484375 C 2.988281 -0.816406 2.675781 -1.195312 2.4375 -1.625 C 2.007812 -2.40625 1.796875 -3.378906 1.796875 -4.546875 L 1.796875 -5.359375 C 1.796875 -5.722656 1.800781 -6.09375 1.8125 -6.46875 C 1.832031 -6.84375 1.859375 -7.207031 1.890625 -7.5625 C 1.921875 -7.832031 1.9375 -8.078125 1.9375 -8.296875 C 1.9375 -8.523438 1.9375 -8.734375 1.9375 -8.921875 C 1.96875 -9.609375 1.984375 -10.28125 1.984375 -10.9375 C 1.984375 -11.601562 1.984375 -12.265625 1.984375 -12.921875 C 1.984375 -13.609375 1.972656 -14.28125 1.953125 -14.9375 C 1.941406 -15.601562 1.9375 -16.269531 1.9375 -16.9375 L 1.9375 -17.25 C 1.9375 -17.820312 1.925781 -18.363281 1.90625 -18.875 C 1.894531 -19.382812 1.890625 -19.863281 1.890625 -20.3125 C 1.890625 -21.175781 1.878906 -22.046875 1.859375 -22.921875 C 1.847656 -23.796875 1.84375 -24.664062 1.84375 -25.53125 L 1.84375 -25.796875 C 1.84375 -26.128906 1.832031 -26.453125 1.8125 -26.765625 C 1.800781 -27.085938 1.796875 -27.394531 1.796875 -27.6875 L 1.796875 -30.796875 C 1.796875 -31.035156 1.8125 -31.242188 1.84375 -31.421875 C 1.875 -31.609375 1.890625 -31.789062 1.890625 -31.96875 L 1.890625 -33.1875 C 1.890625 -33.519531 1.960938 -33.84375 2.109375 -34.15625 C 2.265625 -34.46875 2.445312 -34.726562 2.65625 -34.9375 C 3.070312 -35.425781 3.6875 -35.800781 4.5 -36.0625 C 5.21875 -36.28125 6.070312 -36.390625 7.0625 -36.390625 C 7.96875 -36.390625 8.882812 -36.296875 9.8125 -36.109375 C 11.039062 -35.816406 12.1875 -35.453125 13.25 -35.015625 C 14.320312 -34.578125 15.25 -34.039062 16.03125 -33.40625 C 17.59375 -32.269531 18.6875 -30.890625 19.3125 -29.265625 C 19.550781 -28.671875 19.742188 -28.050781 19.890625 -27.40625 C 20.046875 -26.757812 20.125 -26.117188 20.125 -25.484375 C 20.125 -25.335938 20.125 -25.1875 20.125 -25.03125 C 20.125 -24.882812 20.109375 -24.738281 20.078125 -24.59375 C 19.992188 -23.75 19.851562 -22.941406 19.65625 -22.171875 C 19.457031 -21.410156 19.164062 -20.6875 18.78125 -20 L 18.734375 -19.8125 C 18.253906 -18.914062 17.585938 -18.046875 16.734375 -17.203125 C 15.878906 -16.359375 14.894531 -15.59375 13.78125 -14.90625 L 14.40625 -12.96875 C 14.46875 -12.757812 14.554688 -12.554688 14.671875 -12.359375 C 14.796875 -12.160156 14.875 -11.941406 14.90625 -11.703125 C 15.113281 -11.140625 15.316406 -10.535156 15.515625 -9.890625 C 15.710938 -9.242188 15.835938 -8.785156 15.890625 -8.515625 C 15.953125 -8.242188 16.023438 -7.960938 16.109375 -7.671875 C 16.203125 -7.390625 16.3125 -7.082031 16.4375 -6.75 C 16.582031 -6.445312 16.726562 -6.140625 16.875 -5.828125 C 17.03125 -5.515625 17.195312 -5.238281 17.375 -5 C 17.625 -4.664062 17.875 -4.394531 18.125 -4.1875 C 18.382812 -3.976562 18.660156 -3.929688 18.953125 -4.046875 C 19.160156 -4.109375 19.382812 -4.101562 19.625 -4.03125 C 19.875 -3.957031 20.101562 -3.570312 20.3125 -2.875 C 20.582031 -2.1875 20.566406 -1.695312 20.265625 -1.40625 C 19.960938 -1.125 19.691406 -0.910156 19.453125 -0.765625 L 19.234375 -0.578125 C 18.453125 -0.0976562 17.6875 0.0820312 16.9375 -0.03125 C 16.1875 -0.15625 15.554688 -0.3125 15.046875 -0.5 C 13.992188 -1.007812 13.015625 -2.164062 12.109375 -3.96875 C 11.691406 -4.800781 11.347656 -5.597656 11.078125 -6.359375 C 10.804688 -7.128906 10.503906 -8 10.171875 -8.96875 L 9.8125 -10 L 9.328125 -11.265625 L 8.78125 -12.703125 L 8.375 -12.609375 C 8.375 -12.367188 8.378906 -12.113281 8.390625 -11.84375 C 8.410156 -11.570312 8.421875 -11.316406 8.421875 -11.078125 L 8.421875 -5.671875 C 8.421875 -4.679688 8.304688 -3.710938 8.078125 -2.765625 C 7.859375 -1.816406 7.628906 -1.179688 7.390625 -0.859375 C 6.910156 -0.285156 6.203125 0 5.265625 0 Z M 8.328125 -27.015625 C 8.296875 -26.691406 8.296875 -26.351562 8.328125 -26 C 8.359375 -25.65625 8.375 -25.320312 8.375 -25 L 8.328125 -22.78125 C 8.328125 -22.476562 8.332031 -22.160156 8.34375 -21.828125 C 8.363281 -21.503906 8.375 -21.175781 8.375 -20.84375 L 8.375 -18.0625 C 8.5 -17.757812 8.695312 -17.609375 8.96875 -17.609375 L 9 -17.609375 C 9.09375 -17.609375 9.316406 -17.648438 9.671875 -17.734375 C 10.035156 -17.828125 10.59375 -18.097656 11.34375 -18.546875 C 12.28125 -19.148438 13.03125 -19.828125 13.59375 -20.578125 C 14.164062 -21.328125 14.601562 -22.09375 14.90625 -22.875 C 15.175781 -23.6875 15.3125 -24.453125 15.3125 -25.171875 L 15.3125 -26.03125 C 15.15625 -27.226562 14.648438 -28.300781 13.796875 -29.25 C 12.941406 -30.195312 11.8125 -30.941406 10.40625 -31.484375 C 10.070312 -31.566406 9.800781 -31.628906 9.59375 -31.671875 C 9.382812 -31.722656 9.175781 -31.75 8.96875 -31.75 C 8.96875 -31.75 8.957031 -31.738281 8.9375 -31.71875 C 8.925781 -31.707031 8.890625 -31.703125 8.828125 -31.703125 C 8.554688 -31.578125 8.40625 -31.441406 8.375 -31.296875 L 8.421875 -30.390625 L 8.421875 -29.671875 L 8.328125 -27.0625 Z M 8.328125 -27.015625 "/></g></g></g><g fill="#6a4c42" fill-opacity="0.4"><g transform="translate(231.777877, 204.490079)"><g><path d="M 4.734375 0 C 4.222656 0 3.769531 -0.160156 3.375 -0.484375 C 2.988281 -0.816406 2.675781 -1.195312 2.4375 -1.625 C 2.007812 -2.40625 1.796875 -3.394531 1.796875 -4.59375 L 1.796875 -5.359375 C 1.796875 -5.742188 1.800781 -6.117188 1.8125 -6.484375 C 1.832031 -6.847656 1.859375 -7.222656 1.890625 -7.609375 C 1.921875 -7.847656 1.9375 -8.085938 1.9375 -8.328125 C 1.9375 -8.566406 1.9375 -8.78125 1.9375 -8.96875 C 1.96875 -9.65625 1.984375 -10.328125 1.984375 -10.984375 C 1.984375 -11.648438 1.984375 -12.3125 1.984375 -12.96875 C 1.984375 -13.65625 1.972656 -14.328125 1.953125 -14.984375 C 1.941406 -15.648438 1.9375 -16.316406 1.9375 -16.984375 L 1.9375 -17.34375 C 1.90625 -17.875 1.890625 -18.394531 1.890625 -18.90625 C 1.890625 -19.414062 1.890625 -19.898438 1.890625 -20.359375 C 1.890625 -21.222656 1.890625 -22.097656 1.890625 -22.984375 C 1.890625 -23.867188 1.875 -24.75 1.84375 -25.625 L 1.84375 -25.890625 C 1.8125 -26.222656 1.796875 -26.546875 1.796875 -26.859375 C 1.796875 -27.171875 1.796875 -27.476562 1.796875 -27.78125 L 1.796875 -30.890625 C 1.796875 -31.253906 1.816406 -31.582031 1.859375 -31.875 C 1.910156 -32.175781 1.96875 -32.476562 2.03125 -32.78125 C 2.175781 -33.445312 2.398438 -33.972656 2.703125 -34.359375 C 2.972656 -34.691406 3.269531 -34.960938 3.59375 -35.171875 C 3.925781 -35.378906 4.304688 -35.484375 4.734375 -35.484375 L 5.265625 -35.484375 C 6.203125 -35.484375 6.910156 -35.195312 7.390625 -34.625 C 7.929688 -33.875 8.222656 -33.191406 8.265625 -32.578125 C 8.304688 -31.960938 8.359375 -31.265625 8.421875 -30.484375 L 8.421875 -29.765625 L 8.328125 -27.15625 C 8.328125 -26.132812 8.332031 -25.101562 8.34375 -24.0625 C 8.363281 -23.03125 8.375 -21.972656 8.375 -20.890625 L 8.375 -17.34375 C 8.375 -15.414062 8.378906 -13.472656 8.390625 -11.515625 C 8.410156 -9.566406 8.421875 -7.617188 8.421875 -5.671875 C 8.421875 -4.679688 8.304688 -3.710938 8.078125 -2.765625 C 7.859375 -1.816406 7.628906 -1.179688 7.390625 -0.859375 C 6.910156 -0.285156 6.203125 0 5.265625 0 Z M 4.734375 0 "/></g></g></g><g fill="#6a4c42" fill-opacity="0.4"><g transform="translate(241.998183, 204.490079)"><g><path d="M 6.84375 0 C 5.945312 0 5.109375 -0.179688 4.328125 -0.546875 C 3.609375 -0.898438 3.019531 -1.46875 2.5625 -2.25 C 2.351562 -2.613281 2.179688 -3.023438 2.046875 -3.484375 C 1.910156 -3.953125 1.84375 -4.457031 1.84375 -5 L 1.84375 -6.21875 C 1.84375 -6.632812 1.84375 -7.050781 1.84375 -7.46875 C 1.84375 -7.894531 1.859375 -8.347656 1.890625 -8.828125 C 1.921875 -9.160156 1.9375 -9.484375 1.9375 -9.796875 C 1.9375 -10.109375 1.9375 -10.414062 1.9375 -10.71875 L 1.9375 -17.15625 C 1.9375 -19.53125 1.921875 -21.910156 1.890625 -24.296875 C 1.859375 -26.679688 1.84375 -29.03125 1.84375 -31.34375 L 1.84375 -31.484375 C 1.84375 -31.628906 1.832031 -31.753906 1.8125 -31.859375 C 1.800781 -31.960938 1.796875 -32.078125 1.796875 -32.203125 C 1.796875 -32.890625 1.867188 -33.507812 2.015625 -34.0625 C 2.171875 -34.625 2.351562 -35.097656 2.5625 -35.484375 C 2.800781 -35.867188 3.257812 -36.148438 3.9375 -36.328125 C 4.613281 -36.515625 5.328125 -36.625 6.078125 -36.65625 C 6.828125 -36.6875 7.410156 -36.65625 7.828125 -36.5625 C 8.460938 -36.445312 9.191406 -36.203125 10.015625 -35.828125 C 10.847656 -35.453125 11.757812 -34.78125 12.75 -33.8125 C 15.207031 -31.476562 16.976562 -28.78125 18.0625 -25.71875 L 18.0625 -25.671875 L 18.109375 -25.390625 C 18.796875 -23.296875 19.210938 -20.941406 19.359375 -18.328125 C 19.390625 -18.117188 19.40625 -17.894531 19.40625 -17.65625 C 19.40625 -17.414062 19.40625 -17.175781 19.40625 -16.9375 C 19.40625 -15.914062 19.335938 -14.914062 19.203125 -13.9375 C 19.066406 -12.957031 18.878906 -11.972656 18.640625 -10.984375 C 18.015625 -8.460938 16.960938 -6.332031 15.484375 -4.59375 C 13.898438 -2.695312 11.890625 -1.316406 9.453125 -0.453125 C 8.585938 -0.148438 7.71875 0 6.84375 0 Z M 8.234375 -7.296875 C 8.234375 -7.085938 8.238281 -6.863281 8.25 -6.625 C 8.269531 -6.382812 8.296875 -6.15625 8.328125 -5.9375 C 8.421875 -5.425781 8.585938 -5.097656 8.828125 -4.953125 L 8.828125 -4.90625 C 8.890625 -4.90625 8.925781 -4.894531 8.9375 -4.875 C 8.957031 -4.863281 8.976562 -4.859375 9 -4.859375 C 9.363281 -4.859375 9.847656 -5.054688 10.453125 -5.453125 C 11.890625 -6.441406 13.035156 -7.820312 13.890625 -9.59375 C 14.742188 -11.363281 15.234375 -13.390625 15.359375 -15.671875 C 15.390625 -15.941406 15.40625 -16.195312 15.40625 -16.4375 C 15.40625 -16.675781 15.40625 -16.929688 15.40625 -17.203125 C 15.40625 -18.609375 15.269531 -20.050781 15 -21.53125 C 14.394531 -24.613281 13.207031 -27.328125 11.4375 -29.671875 C 10.65625 -30.515625 10.082031 -31.023438 9.71875 -31.203125 C 9.363281 -31.390625 9.140625 -31.484375 9.046875 -31.484375 L 8.96875 -31.484375 C 8.75 -31.421875 8.585938 -31.226562 8.484375 -30.90625 C 8.378906 -30.59375 8.3125 -30.273438 8.28125 -29.953125 C 8.25 -29.679688 8.234375 -29.398438 8.234375 -29.109375 C 8.234375 -28.828125 8.234375 -28.519531 8.234375 -28.1875 C 8.234375 -27.914062 8.238281 -27.648438 8.25 -27.390625 C 8.269531 -27.140625 8.28125 -26.894531 8.28125 -26.65625 L 8.28125 -26.609375 C 8.28125 -26.398438 8.285156 -26.191406 8.296875 -25.984375 C 8.316406 -25.773438 8.328125 -25.578125 8.328125 -25.390625 L 8.328125 -24.625 C 8.328125 -23.457031 8.332031 -22.28125 8.34375 -21.09375 C 8.363281 -19.90625 8.375 -18.742188 8.375 -17.609375 C 8.375 -16.046875 8.347656 -14.453125 8.296875 -12.828125 C 8.253906 -11.210938 8.234375 -9.609375 8.234375 -8.015625 Z M 8.234375 -7.296875 "/></g></g></g><g fill="#6a4c42" fill-opacity="0.4"><g transform="translate(263.204198, 204.490079)"><g><path d="M 11.484375 0 C 8.660156 0 6.5 -1.332031 5 -4 C 4.007812 -5.6875 3.242188 -7.957031 2.703125 -10.8125 C 2.578125 -11.5 2.429688 -12.273438 2.265625 -13.140625 C 2.109375 -14.015625 2 -14.914062 1.9375 -15.84375 C 1.84375 -16.894531 1.796875 -17.890625 1.796875 -18.828125 C 1.796875 -19.210938 1.800781 -19.597656 1.8125 -19.984375 C 1.832031 -20.378906 1.859375 -20.785156 1.890625 -21.203125 L 1.9375 -21.34375 C 2 -22.394531 2.101562 -23.429688 2.25 -24.453125 C 2.40625 -25.472656 2.601562 -26.460938 2.84375 -27.421875 C 3.40625 -29.703125 4.3125 -31.546875 5.5625 -32.953125 C 6.8125 -34.367188 8.347656 -35.285156 10.171875 -35.703125 C 10.984375 -35.921875 11.8125 -36.03125 12.65625 -36.03125 C 13.519531 -36.03125 14.359375 -35.921875 15.171875 -35.703125 C 16.890625 -35.316406 18.226562 -34.3125 19.1875 -32.6875 L 19.234375 -32.6875 C 20.160156 -30.945312 20.65625 -28.800781 20.71875 -26.25 L 20.765625 -25.9375 L 20.765625 -25.890625 C 20.785156 -25.585938 20.796875 -25.296875 20.796875 -25.015625 C 20.796875 -24.734375 20.796875 -24.457031 20.796875 -24.1875 L 20.796875 -24.140625 C 20.742188 -23.566406 20.535156 -23.097656 20.171875 -22.734375 C 20.140625 -22.734375 20.125 -22.722656 20.125 -22.703125 C 19.769531 -22.429688 19.320312 -22.296875 18.78125 -22.296875 L 18.6875 -22.296875 C 18.082031 -22.316406 17.601562 -22.539062 17.25 -22.96875 C 16.945312 -23.351562 16.796875 -23.785156 16.796875 -24.265625 L 16.796875 -24.59375 C 16.796875 -24.976562 16.78125 -25.425781 16.75 -25.9375 C 16.71875 -26.445312 16.660156 -27.03125 16.578125 -27.6875 C 16.421875 -29.007812 16.054688 -30.078125 15.484375 -30.890625 L 15.484375 -30.9375 C 15.035156 -31.625 14.363281 -31.96875 13.46875 -31.96875 C 13.4375 -31.96875 13.375 -31.96875 13.28125 -31.96875 C 13.195312 -31.96875 13.125 -31.953125 13.0625 -31.921875 L 13.015625 -31.921875 C 12.503906 -31.835938 11.96875 -31.582031 11.40625 -31.15625 C 10.851562 -30.738281 10.335938 -30.050781 9.859375 -29.09375 C 9.378906 -28.132812 9.019531 -26.796875 8.78125 -25.078125 C 8.507812 -23.242188 8.375 -21.550781 8.375 -20 L 8.375 -19.765625 C 8.375 -18.804688 8.394531 -17.988281 8.4375 -17.3125 C 8.488281 -16.632812 8.539062 -16.039062 8.59375 -15.53125 C 8.65625 -14.90625 8.753906 -14.109375 8.890625 -13.140625 C 9.023438 -12.179688 9.210938 -11.160156 9.453125 -10.078125 C 9.691406 -9.003906 10.019531 -7.976562 10.4375 -7 C 10.863281 -6.019531 11.390625 -5.21875 12.015625 -4.59375 C 12.285156 -4.289062 12.617188 -4.140625 13.015625 -4.140625 C 13.398438 -4.140625 13.820312 -4.320312 14.28125 -4.6875 C 15.238281 -5.550781 15.910156 -6.8125 16.296875 -8.46875 C 16.484375 -9.25 16.601562 -10.050781 16.65625 -10.875 C 16.71875 -11.695312 16.75 -12.457031 16.75 -13.15625 L 16.75 -13.234375 C 16.78125 -13.359375 16.796875 -13.460938 16.796875 -13.546875 C 16.796875 -13.640625 16.796875 -13.75 16.796875 -13.875 C 16.796875 -14.675781 16.675781 -15.210938 16.4375 -15.484375 L 16.4375 -15.53125 C 16.132812 -15.957031 15.503906 -16.226562 14.546875 -16.34375 L 14.5 -16.34375 C 14.195312 -16.40625 13.925781 -16.476562 13.6875 -16.5625 C 13.445312 -16.65625 13.207031 -16.765625 12.96875 -16.890625 C 12.488281 -17.160156 12.25 -17.640625 12.25 -18.328125 L 12.25 -18.6875 C 12.425781 -19.5625 12.984375 -20.085938 13.921875 -20.265625 C 14.484375 -20.378906 15.113281 -20.4375 15.8125 -20.4375 L 16.53125 -20.4375 C 16.644531 -20.46875 16.753906 -20.484375 16.859375 -20.484375 C 16.960938 -20.484375 17.0625 -20.484375 17.15625 -20.484375 C 18.445312 -20.484375 19.378906 -20.242188 19.953125 -19.765625 C 20.546875 -19.191406 20.890625 -18.050781 20.984375 -16.34375 C 21.015625 -16.132812 21.03125 -15.910156 21.03125 -15.671875 C 21.03125 -15.429688 21.03125 -15.191406 21.03125 -14.953125 C 21.03125 -14.203125 21.003906 -13.488281 20.953125 -12.8125 C 20.910156 -12.132812 20.859375 -11.484375 20.796875 -10.859375 C 20.742188 -9.890625 20.625 -8.945312 20.4375 -8.03125 C 20.257812 -7.125 20.003906 -6.265625 19.671875 -5.453125 L 19.671875 -5.40625 C 18.472656 -2.488281 16.328125 -0.734375 13.234375 -0.140625 L 13.1875 -0.140625 C 12.625 -0.046875 12.054688 0 11.484375 0 Z M 11.484375 0 "/></g></g></g><g fill="#6a4c42" fill-opacity="0.4"><g transform="translate(286.031051, 204.490079)"><g><path d="M 11.390625 0 C 11.179688 0 10.972656 0 10.765625 0 C 10.554688 0 10.332031 -0.015625 10.09375 -0.046875 C 8.5 -0.046875 7.128906 -0.222656 5.984375 -0.578125 L 5.9375 -0.578125 C 5.28125 -0.828125 4.71875 -1.175781 4.25 -1.625 C 3.789062 -2.070312 3.394531 -2.613281 3.0625 -3.25 C 2.757812 -3.875 2.53125 -4.535156 2.375 -5.234375 C 2.226562 -5.941406 2.128906 -6.628906 2.078125 -7.296875 C 1.859375 -8.703125 1.765625 -10.1875 1.796875 -11.75 C 1.828125 -13.3125 1.859375 -14.921875 1.890625 -16.578125 L 1.9375 -16.9375 C 1.96875 -18.613281 1.957031 -20.300781 1.90625 -22 C 1.863281 -23.695312 1.875 -25.335938 1.9375 -26.921875 L 2.15625 -30.671875 L 2.15625 -31.296875 C 2.1875 -32.734375 2.398438 -33.8125 2.796875 -34.53125 C 3.210938 -35.289062 3.859375 -35.742188 4.734375 -35.890625 C 5.179688 -35.984375 5.734375 -36.03125 6.390625 -36.03125 L 9.6875 -36.03125 C 10.195312 -36.03125 10.800781 -36.03125 11.5 -36.03125 C 12.207031 -36.03125 12.898438 -35.988281 13.578125 -35.90625 C 14.253906 -35.832031 14.847656 -35.675781 15.359375 -35.4375 C 15.867188 -35.195312 16.179688 -34.820312 16.296875 -34.3125 C 16.359375 -34.164062 16.390625 -33.972656 16.390625 -33.734375 C 16.390625 -33.273438 16.195312 -32.851562 15.8125 -32.46875 C 15.570312 -32.195312 15.25 -31.976562 14.84375 -31.8125 C 14.4375 -31.644531 13.898438 -31.5625 13.234375 -31.5625 L 11.4375 -31.5625 C 11.34375 -31.5625 11.242188 -31.566406 11.140625 -31.578125 C 11.035156 -31.597656 10.925781 -31.609375 10.8125 -31.609375 C 10.207031 -31.609375 9.679688 -31.519531 9.234375 -31.34375 C 8.753906 -31.101562 8.484375 -30.394531 8.421875 -29.21875 L 8.421875 -28.78125 C 8.390625 -27.726562 8.34375 -26.679688 8.28125 -25.640625 C 8.226562 -24.609375 8.1875 -23.566406 8.15625 -22.515625 L 8.15625 -22.46875 C 8.15625 -22.375 8.15625 -22.273438 8.15625 -22.171875 C 8.15625 -22.066406 8.125 -21.941406 8.0625 -21.796875 C 8.0625 -21.671875 8.0625 -21.5625 8.0625 -21.46875 C 8.0625 -21.382812 8.046875 -21.285156 8.015625 -21.171875 C 8.015625 -20.679688 8.050781 -20.347656 8.125 -20.171875 C 8.195312 -19.992188 8.265625 -19.875 8.328125 -19.8125 L 8.375 -19.765625 C 8.550781 -19.679688 8.820312 -19.640625 9.1875 -19.640625 L 9.734375 -19.640625 C 9.878906 -19.660156 10.019531 -19.671875 10.15625 -19.671875 C 10.289062 -19.671875 10.445312 -19.671875 10.625 -19.671875 C 10.6875 -19.671875 10.753906 -19.675781 10.828125 -19.6875 C 10.898438 -19.707031 10.984375 -19.71875 11.078125 -19.71875 L 12.96875 -19.71875 C 13.238281 -19.71875 13.523438 -19.695312 13.828125 -19.65625 C 14.128906 -19.613281 14.367188 -19.484375 14.546875 -19.265625 L 14.59375 -19.234375 C 15.039062 -18.773438 15.265625 -18.234375 15.265625 -17.609375 C 15.265625 -17.515625 15.265625 -17.414062 15.265625 -17.3125 C 15.265625 -17.207031 15.234375 -17.097656 15.171875 -16.984375 C 15.054688 -16.679688 14.863281 -16.347656 14.59375 -15.984375 C 14.320312 -15.628906 13.84375 -15.453125 13.15625 -15.453125 L 12.78125 -15.453125 C 12.664062 -15.453125 12.523438 -15.453125 12.359375 -15.453125 C 12.191406 -15.453125 12.019531 -15.460938 11.84375 -15.484375 L 9.734375 -15.484375 C 9.335938 -15.484375 8.9375 -15.445312 8.53125 -15.375 C 8.125 -15.300781 7.921875 -15.054688 7.921875 -14.640625 L 7.875 -13.375 C 7.875 -13.28125 7.890625 -13.007812 7.921875 -12.5625 C 7.953125 -12.113281 7.988281 -11.601562 8.03125 -11.03125 C 8.082031 -10.457031 8.128906 -9.921875 8.171875 -9.421875 C 8.210938 -8.929688 8.25 -8.582031 8.28125 -8.375 C 8.28125 -8.3125 8.285156 -8.25 8.296875 -8.1875 C 8.316406 -8.132812 8.328125 -8.0625 8.328125 -7.96875 C 8.597656 -5.957031 9.425781 -4.785156 10.8125 -4.453125 C 11.050781 -4.421875 11.289062 -4.40625 11.53125 -4.40625 C 11.769531 -4.40625 12.007812 -4.40625 12.25 -4.40625 C 12.519531 -4.40625 12.773438 -4.40625 13.015625 -4.40625 C 13.253906 -4.40625 13.492188 -4.421875 13.734375 -4.453125 L 15 -4.546875 L 15.046875 -4.546875 C 15.941406 -4.546875 16.570312 -4.203125 16.9375 -3.515625 C 16.9375 -3.515625 16.941406 -3.515625 16.953125 -3.515625 C 16.972656 -3.515625 16.984375 -3.5 16.984375 -3.46875 C 17.191406 -3.101562 17.296875 -2.757812 17.296875 -2.4375 C 17.296875 -2.28125 17.265625 -2.113281 17.203125 -1.9375 C 17.140625 -1.757812 17.066406 -1.5625 16.984375 -1.34375 L 16.984375 -1.3125 C 16.472656 -0.613281 15.570312 -0.207031 14.28125 -0.09375 C 13.882812 -0.0625 13.4375 -0.0351562 12.9375 -0.015625 C 12.445312 -0.00390625 11.929688 0 11.390625 0 Z M 11.390625 0 "/></g></g></g><g fill="#6a4c42" fill-opacity="1"><g transform="translate(71.845529, 202.499987)"><g><path d="M 11.75 0 C 10.695312 0 9.707031 -0.164062 8.78125 -0.5 C 7.882812 -0.820312 7.070312 -1.328125 6.34375 -2.015625 C 5.625 -2.710938 4.976562 -3.554688 4.40625 -4.546875 C 3.414062 -6.316406 2.710938 -8.523438 2.296875 -11.171875 C 2.117188 -12.398438 1.988281 -13.5625 1.90625 -14.65625 C 1.832031 -15.75 1.796875 -16.820312 1.796875 -17.875 L 1.796875 -18.46875 C 1.859375 -20.800781 1.992188 -22.78125 2.203125 -24.40625 C 2.328125 -25.28125 2.507812 -26.171875 2.75 -27.078125 C 2.988281 -27.992188 3.273438 -28.90625 3.609375 -29.8125 C 3.929688 -30.738281 4.335938 -31.5625 4.828125 -32.28125 C 5.328125 -33.007812 5.878906 -33.65625 6.484375 -34.21875 C 7.171875 -34.820312 7.925781 -35.316406 8.75 -35.703125 C 9.582031 -36.097656 10.492188 -36.351562 11.484375 -36.46875 C 11.722656 -36.5 11.945312 -36.515625 12.15625 -36.515625 C 12.363281 -36.515625 12.570312 -36.515625 12.78125 -36.515625 C 13.832031 -36.515625 14.753906 -36.382812 15.546875 -36.125 C 16.347656 -35.875 17.035156 -35.523438 17.609375 -35.078125 C 18.929688 -33.992188 19.863281 -32.117188 20.40625 -29.453125 C 20.488281 -29.054688 20.53125 -28.585938 20.53125 -28.046875 L 20.53125 -27.921875 C 20.53125 -27.410156 20.441406 -26.929688 20.265625 -26.484375 C 20.140625 -26.085938 19.921875 -25.835938 19.609375 -25.734375 C 19.296875 -25.628906 19.035156 -25.578125 18.828125 -25.578125 L 18.78125 -25.578125 C 17.96875 -25.722656 17.375 -26.1875 17 -26.96875 C 16.625 -27.75 16.332031 -28.5625 16.125 -29.40625 C 15.882812 -30.300781 15.613281 -30.992188 15.3125 -31.484375 L 14.859375 -31.96875 C 14.492188 -32.238281 14.132812 -32.375 13.78125 -32.375 C 13.539062 -32.375 13.332031 -32.332031 13.15625 -32.25 L 13.109375 -32.25 L 12.78125 -32.15625 L 12.421875 -32.015625 C 11.222656 -31.472656 10.25 -30.347656 9.5 -28.640625 C 9.195312 -27.859375 8.929688 -26.960938 8.703125 -25.953125 C 8.484375 -24.953125 8.328125 -23.835938 8.234375 -22.609375 C 8.210938 -22.128906 8.191406 -21.644531 8.171875 -21.15625 C 8.160156 -20.675781 8.15625 -20.179688 8.15625 -19.671875 C 8.15625 -18.953125 8.175781 -18.285156 8.21875 -17.671875 C 8.257812 -17.054688 8.3125 -16.476562 8.375 -15.9375 C 8.46875 -14.851562 8.570312 -13.867188 8.6875 -12.984375 C 8.8125 -12.097656 8.945312 -11.3125 9.09375 -10.625 C 9.21875 -10.113281 9.382812 -9.5 9.59375 -8.78125 C 9.800781 -8.0625 10.078125 -7.351562 10.421875 -6.65625 C 10.765625 -5.96875 11.191406 -5.382812 11.703125 -4.90625 C 12.066406 -4.632812 12.472656 -4.5 12.921875 -4.5 C 13.253906 -4.5 13.644531 -4.585938 14.09375 -4.765625 C 14.90625 -5.304688 15.46875 -6.003906 15.78125 -6.859375 C 16.09375 -7.722656 16.34375 -8.664062 16.53125 -9.6875 C 16.613281 -10.488281 16.78125 -11.242188 17.03125 -11.953125 C 17.289062 -12.660156 17.828125 -13.070312 18.640625 -13.1875 L 18.734375 -13.1875 C 19.421875 -13.1875 19.960938 -12.875 20.359375 -12.25 C 20.597656 -11.800781 20.71875 -11.242188 20.71875 -10.578125 L 20.71875 -10.453125 C 20.65625 -9.703125 20.59375 -9.144531 20.53125 -8.78125 C 20.445312 -8.332031 20.273438 -7.6875 20.015625 -6.84375 C 19.765625 -6 19.394531 -5.125 18.90625 -4.21875 C 18.425781 -3.320312 17.769531 -2.53125 16.9375 -1.84375 L 16.890625 -1.84375 C 16.078125 -1.21875 15.234375 -0.753906 14.359375 -0.453125 C 13.492188 -0.148438 12.625 0 11.75 0 Z M 11.75 0 "/></g></g></g><g fill="#6a4c42" fill-opacity="1"><g transform="translate(93.456756, 202.499987)"><g><path d="M 12.015625 0 C 11.453125 0 10.835938 -0.0703125 10.171875 -0.21875 C 8.734375 -0.4375 7.519531 -1.039062 6.53125 -2.03125 C 5.0625 -3.5 3.90625 -5.796875 3.0625 -8.921875 C 2.757812 -10.023438 2.503906 -11.207031 2.296875 -12.46875 C 2.085938 -13.726562 1.953125 -15.066406 1.890625 -16.484375 L 1.890625 -16.609375 C 1.859375 -17.035156 1.832031 -17.425781 1.8125 -17.78125 C 1.800781 -18.144531 1.796875 -18.507812 1.796875 -18.875 C 1.796875 -19.914062 1.832031 -20.945312 1.90625 -21.96875 C 1.988281 -22.988281 2.117188 -23.96875 2.296875 -24.90625 C 2.742188 -27.695312 3.613281 -30.097656 4.90625 -32.109375 L 4.953125 -32.109375 C 6.003906 -33.671875 7.25 -34.734375 8.6875 -35.296875 C 9.257812 -35.566406 9.859375 -35.757812 10.484375 -35.875 C 11.117188 -36 11.78125 -36.0625 12.46875 -36.0625 C 12.675781 -36.0625 12.878906 -36.054688 13.078125 -36.046875 C 13.273438 -36.035156 13.476562 -36.015625 13.6875 -35.984375 C 15.632812 -35.773438 17.179688 -35.082031 18.328125 -33.90625 C 19.347656 -32.820312 20.203125 -31.441406 20.890625 -29.765625 C 21.429688 -28.378906 21.835938 -26.832031 22.109375 -25.125 C 22.472656 -22.78125 22.65625 -20.585938 22.65625 -18.546875 C 22.65625 -17.140625 22.570312 -15.691406 22.40625 -14.203125 C 22.238281 -12.722656 21.988281 -11.234375 21.65625 -9.734375 L 21.65625 -9.6875 C 21.175781 -7.789062 20.488281 -6.109375 19.59375 -4.640625 C 18.601562 -2.984375 17.367188 -1.753906 15.890625 -0.953125 C 14.816406 -0.316406 13.523438 0 12.015625 0 Z M 8.375 -19.09375 C 8.375 -17.082031 8.507812 -15.054688 8.78125 -13.015625 C 9.195312 -10.335938 9.84375 -8.160156 10.71875 -6.484375 C 11.4375 -5.128906 12.1875 -4.410156 12.96875 -4.328125 L 13.109375 -4.328125 C 13.140625 -4.296875 13.179688 -4.28125 13.234375 -4.28125 C 13.898438 -4.28125 14.546875 -4.59375 15.171875 -5.21875 C 15.984375 -6 16.613281 -6.960938 17.0625 -8.109375 L 17.34375 -8.828125 C 17.519531 -9.515625 17.675781 -10.332031 17.8125 -11.28125 C 17.945312 -12.226562 18.054688 -13.164062 18.140625 -14.09375 C 18.234375 -15 18.296875 -15.878906 18.328125 -16.734375 C 18.359375 -17.585938 18.375 -18.421875 18.375 -19.234375 C 18.375 -19.585938 18.375 -19.9375 18.375 -20.28125 C 18.375 -20.625 18.359375 -20.976562 18.328125 -21.34375 C 18.234375 -24.101562 17.890625 -26.382812 17.296875 -28.1875 C 16.660156 -30.113281 15.757812 -31.34375 14.59375 -31.875 C 14.257812 -32 13.925781 -32.0625 13.59375 -32.0625 C 13.144531 -32.0625 12.753906 -31.957031 12.421875 -31.75 C 11.109375 -30.96875 10.117188 -29.644531 9.453125 -27.78125 C 9.179688 -26.851562 8.957031 -25.828125 8.78125 -24.703125 C 8.601562 -23.578125 8.484375 -22.320312 8.421875 -20.9375 C 8.390625 -20.632812 8.375 -20.328125 8.375 -20.015625 C 8.375 -19.703125 8.375 -19.394531 8.375 -19.09375 Z M 8.375 -19.09375 "/></g></g></g><g fill="#6a4c42" fill-opacity="1"><g transform="translate(117.904448, 202.499987)"><g><path d="M 11.75 0 C 10.695312 0 9.707031 -0.164062 8.78125 -0.5 C 7.882812 -0.820312 7.070312 -1.328125 6.34375 -2.015625 C 5.625 -2.710938 4.976562 -3.554688 4.40625 -4.546875 C 3.414062 -6.316406 2.710938 -8.523438 2.296875 -11.171875 C 2.117188 -12.398438 1.988281 -13.5625 1.90625 -14.65625 C 1.832031 -15.75 1.796875 -16.820312 1.796875 -17.875 L 1.796875 -18.46875 C 1.859375 -20.800781 1.992188 -22.78125 2.203125 -24.40625 C 2.328125 -25.28125 2.507812 -26.171875 2.75 -27.078125 C 2.988281 -27.992188 3.273438 -28.90625 3.609375 -29.8125 C 3.929688 -30.738281 4.335938 -31.5625 4.828125 -32.28125 C 5.328125 -33.007812 5.878906 -33.65625 6.484375 -34.21875 C 7.171875 -34.820312 7.925781 -35.316406 8.75 -35.703125 C 9.582031 -36.097656 10.492188 -36.351562 11.484375 -36.46875 C 11.722656 -36.5 11.945312 -36.515625 12.15625 -36.515625 C 12.363281 -36.515625 12.570312 -36.515625 12.78125 -36.515625 C 13.832031 -36.515625 14.753906 -36.382812 15.546875 -36.125 C 16.347656 -35.875 17.035156 -35.523438 17.609375 -35.078125 C 18.929688 -33.992188 19.863281 -32.117188 20.40625 -29.453125 C 20.488281 -29.054688 20.53125 -28.585938 20.53125 -28.046875 L 20.53125 -27.921875 C 20.53125 -27.410156 20.441406 -26.929688 20.265625 -26.484375 C 20.140625 -26.085938 19.921875 -25.835938 19.609375 -25.734375 C 19.296875 -25.628906 19.035156 -25.578125 18.828125 -25.578125 L 18.78125 -25.578125 C 17.96875 -25.722656 17.375 -26.1875 17 -26.96875 C 16.625 -27.75 16.332031 -28.5625 16.125 -29.40625 C 15.882812 -30.300781 15.613281 -30.992188 15.3125 -31.484375 L 14.859375 -31.96875 C 14.492188 -32.238281 14.132812 -32.375 13.78125 -32.375 C 13.539062 -32.375 13.332031 -32.332031 13.15625 -32.25 L 13.109375 -32.25 L 12.78125 -32.15625 L 12.421875 -32.015625 C 11.222656 -31.472656 10.25 -30.347656 9.5 -28.640625 C 9.195312 -27.859375 8.929688 -26.960938 8.703125 -25.953125 C 8.484375 -24.953125 8.328125 -23.835938 8.234375 -22.609375 C 8.210938 -22.128906 8.191406 -21.644531 8.171875 -21.15625 C 8.160156 -20.675781 8.15625 -20.179688 8.15625 -19.671875 C 8.15625 -18.953125 8.175781 -18.285156 8.21875 -17.671875 C 8.257812 -17.054688 8.3125 -16.476562 8.375 -15.9375 C 8.46875 -14.851562 8.570312 -13.867188 8.6875 -12.984375 C 8.8125 -12.097656 8.945312 -11.3125 9.09375 -10.625 C 9.21875 -10.113281 9.382812 -9.5 9.59375 -8.78125 C 9.800781 -8.0625 10.078125 -7.351562 10.421875 -6.65625 C 10.765625 -5.96875 11.191406 -5.382812 11.703125 -4.90625 C 12.066406 -4.632812 12.472656 -4.5 12.921875 -4.5 C 13.253906 -4.5 13.644531 -4.585938 14.09375 -4.765625 C 14.90625 -5.304688 15.46875 -6.003906 15.78125 -6.859375 C 16.09375 -7.722656 16.34375 -8.664062 16.53125 -9.6875 C 16.613281 -10.488281 16.78125 -11.242188 17.03125 -11.953125 C 17.289062 -12.660156 17.828125 -13.070312 18.640625 -13.1875 L 18.734375 -13.1875 C 19.421875 -13.1875 19.960938 -12.875 20.359375 -12.25 C 20.597656 -11.800781 20.71875 -11.242188 20.71875 -10.578125 L 20.71875 -10.453125 C 20.65625 -9.703125 20.59375 -9.144531 20.53125 -8.78125 C 20.445312 -8.332031 20.273438 -7.6875 20.015625 -6.84375 C 19.765625 -6 19.394531 -5.125 18.90625 -4.21875 C 18.425781 -3.320312 17.769531 -2.53125 16.9375 -1.84375 L 16.890625 -1.84375 C 16.078125 -1.21875 15.234375 -0.753906 14.359375 -0.453125 C 13.492188 -0.148438 12.625 0 11.75 0 Z M 11.75 0 "/></g></g></g><g fill="#6a4c42" fill-opacity="1"><g transform="translate(139.515675, 202.499987)"><g><path d="M 12.015625 0 C 11.453125 0 10.835938 -0.0703125 10.171875 -0.21875 C 8.734375 -0.4375 7.519531 -1.039062 6.53125 -2.03125 C 5.0625 -3.5 3.90625 -5.796875 3.0625 -8.921875 C 2.757812 -10.023438 2.503906 -11.207031 2.296875 -12.46875 C 2.085938 -13.726562 1.953125 -15.066406 1.890625 -16.484375 L 1.890625 -16.609375 C 1.859375 -17.035156 1.832031 -17.425781 1.8125 -17.78125 C 1.800781 -18.144531 1.796875 -18.507812 1.796875 -18.875 C 1.796875 -19.914062 1.832031 -20.945312 1.90625 -21.96875 C 1.988281 -22.988281 2.117188 -23.96875 2.296875 -24.90625 C 2.742188 -27.695312 3.613281 -30.097656 4.90625 -32.109375 L 4.953125 -32.109375 C 6.003906 -33.671875 7.25 -34.734375 8.6875 -35.296875 C 9.257812 -35.566406 9.859375 -35.757812 10.484375 -35.875 C 11.117188 -36 11.78125 -36.0625 12.46875 -36.0625 C 12.675781 -36.0625 12.878906 -36.054688 13.078125 -36.046875 C 13.273438 -36.035156 13.476562 -36.015625 13.6875 -35.984375 C 15.632812 -35.773438 17.179688 -35.082031 18.328125 -33.90625 C 19.347656 -32.820312 20.203125 -31.441406 20.890625 -29.765625 C 21.429688 -28.378906 21.835938 -26.832031 22.109375 -25.125 C 22.472656 -22.78125 22.65625 -20.585938 22.65625 -18.546875 C 22.65625 -17.140625 22.570312 -15.691406 22.40625 -14.203125 C 22.238281 -12.722656 21.988281 -11.234375 21.65625 -9.734375 L 21.65625 -9.6875 C 21.175781 -7.789062 20.488281 -6.109375 19.59375 -4.640625 C 18.601562 -2.984375 17.367188 -1.753906 15.890625 -0.953125 C 14.816406 -0.316406 13.523438 0 12.015625 0 Z M 8.375 -19.09375 C 8.375 -17.082031 8.507812 -15.054688 8.78125 -13.015625 C 9.195312 -10.335938 9.84375 -8.160156 10.71875 -6.484375 C 11.4375 -5.128906 12.1875 -4.410156 12.96875 -4.328125 L 13.109375 -4.328125 C 13.140625 -4.296875 13.179688 -4.28125 13.234375 -4.28125 C 13.898438 -4.28125 14.546875 -4.59375 15.171875 -5.21875 C 15.984375 -6 16.613281 -6.960938 17.0625 -8.109375 L 17.34375 -8.828125 C 17.519531 -9.515625 17.675781 -10.332031 17.8125 -11.28125 C 17.945312 -12.226562 18.054688 -13.164062 18.140625 -14.09375 C 18.234375 -15 18.296875 -15.878906 18.328125 -16.734375 C 18.359375 -17.585938 18.375 -18.421875 18.375 -19.234375 C 18.375 -19.585938 18.375 -19.9375 18.375 -20.28125 C 18.375 -20.625 18.359375 -20.976562 18.328125 -21.34375 C 18.234375 -24.101562 17.890625 -26.382812 17.296875 -28.1875 C 16.660156 -30.113281 15.757812 -31.34375 14.59375 -31.875 C 14.257812 -32 13.925781 -32.0625 13.59375 -32.0625 C 13.144531 -32.0625 12.753906 -31.957031 12.421875 -31.75 C 11.109375 -30.96875 10.117188 -29.644531 9.453125 -27.78125 C 9.179688 -26.851562 8.957031 -25.828125 8.78125 -24.703125 C 8.601562 -23.578125 8.484375 -22.320312 8.421875 -20.9375 C 8.390625 -20.632812 8.375 -20.328125 8.375 -20.015625 C 8.375 -19.703125 8.375 -19.394531 8.375 -19.09375 Z M 8.375 -19.09375 "/></g></g></g><g fill="#6a4c42" fill-opacity="1"><g transform="translate(163.963367, 202.499987)"><g><path d="M 4.6875 0 C 4.257812 -0.03125 3.804688 -0.132812 3.328125 -0.3125 C 2.847656 -0.488281 2.472656 -0.832031 2.203125 -1.34375 C 1.929688 -1.882812 1.796875 -2.519531 1.796875 -3.25 C 1.796875 -3.394531 1.796875 -3.539062 1.796875 -3.6875 C 1.796875 -3.84375 1.8125 -4.007812 1.84375 -4.1875 C 2.175781 -6.769531 2.546875 -9.410156 2.953125 -12.109375 C 3.359375 -14.816406 3.800781 -17.445312 4.28125 -20 C 4.875 -23.113281 5.476562 -25.773438 6.09375 -27.984375 C 6.71875 -30.191406 7.359375 -32.03125 8.015625 -33.5 C 8.859375 -34.96875 9.878906 -35.796875 11.078125 -35.984375 C 11.203125 -36.015625 11.316406 -36.03125 11.421875 -36.03125 C 11.523438 -36.03125 11.617188 -36.03125 11.703125 -36.03125 C 12.722656 -36.03125 13.757812 -35.59375 14.8125 -34.71875 C 15.800781 -33.726562 16.691406 -32.226562 17.484375 -30.21875 C 18.285156 -28.207031 19.003906 -25.625 19.640625 -22.46875 C 20.171875 -19.851562 20.609375 -17.164062 20.953125 -14.40625 C 21.304688 -11.644531 21.601562 -9.09375 21.84375 -6.75 L 22.015625 -5.171875 C 22.046875 -4.992188 22.0625 -4.828125 22.0625 -4.671875 C 22.0625 -4.523438 22.0625 -4.363281 22.0625 -4.1875 C 22.0625 -3.707031 22.019531 -3.210938 21.9375 -2.703125 C 21.75 -1.648438 21.113281 -0.957031 20.03125 -0.625 L 19.59375 -0.625 C 18.988281 -0.625 18.503906 -0.863281 18.140625 -1.34375 C 17.785156 -1.882812 17.5625 -2.503906 17.46875 -3.203125 C 17.257812 -5.566406 17.035156 -7.648438 16.796875 -9.453125 L 9.046875 -8.59375 C 8.929688 -7.820312 8.820312 -7.035156 8.71875 -6.234375 C 8.613281 -5.441406 8.515625 -4.625 8.421875 -3.78125 C 8.296875 -2.644531 7.953125 -1.742188 7.390625 -1.078125 C 6.753906 -0.359375 5.851562 0 4.6875 0 Z M 9.765625 -12.921875 L 16.25 -13.546875 L 16.21875 -13.78125 C 16.03125 -14.914062 15.832031 -16.195312 15.625 -17.625 C 15.414062 -19.050781 15.175781 -20.484375 14.90625 -21.921875 C 14.632812 -23.367188 14.351562 -24.695312 14.0625 -25.90625 C 13.78125 -27.125 13.488281 -28.109375 13.1875 -28.859375 C 13.132812 -29.046875 13.082031 -29.179688 13.03125 -29.265625 C 12.988281 -29.359375 12.953125 -29.421875 12.921875 -29.453125 L 12.828125 -29.40625 C 12.554688 -28.050781 12.234375 -26.425781 11.859375 -24.53125 C 11.484375 -22.644531 11.113281 -20.6875 10.75 -18.65625 C 10.394531 -16.632812 10.066406 -14.722656 9.765625 -12.921875 Z M 9.765625 -12.921875 "/></g></g></g><g fill="#f6f1e8" fill-opacity="1"><g transform="translate(187.825994, 202.499987)"><g><path d="M 7.4375 0.265625 C 6.59375 0.265625 5.8125 0.175781 5.09375 0 L 4.734375 0 C 4.222656 0 3.769531 -0.160156 3.375 -0.484375 C 2.988281 -0.816406 2.675781 -1.210938 2.4375 -1.671875 C 2.007812 -2.421875 1.796875 -3.378906 1.796875 -4.546875 L 1.796875 -5.40625 C 1.796875 -5.757812 1.800781 -6.117188 1.8125 -6.484375 C 1.832031 -6.847656 1.859375 -7.222656 1.890625 -7.609375 C 1.921875 -7.847656 1.9375 -8.085938 1.9375 -8.328125 C 1.9375 -8.566406 1.9375 -8.789062 1.9375 -9 C 1.96875 -9.664062 1.984375 -10.328125 1.984375 -10.984375 C 1.984375 -11.648438 1.984375 -12.3125 1.984375 -12.96875 C 1.984375 -13.65625 1.972656 -14.335938 1.953125 -15.015625 C 1.941406 -15.691406 1.9375 -16.347656 1.9375 -16.984375 L 1.9375 -17.34375 C 1.9375 -17.875 1.925781 -18.398438 1.90625 -18.921875 C 1.894531 -19.453125 1.890625 -19.929688 1.890625 -20.359375 C 1.890625 -21.222656 1.878906 -22.097656 1.859375 -22.984375 C 1.847656 -23.867188 1.84375 -24.765625 1.84375 -25.671875 L 1.84375 -25.9375 C 1.84375 -26.269531 1.832031 -26.582031 1.8125 -26.875 C 1.800781 -27.175781 1.796875 -27.476562 1.796875 -27.78125 L 1.796875 -30.890625 C 1.796875 -31.128906 1.800781 -31.351562 1.8125 -31.5625 C 1.832031 -31.769531 1.859375 -31.984375 1.890625 -32.203125 L 1.890625 -33.90625 C 1.890625 -34.175781 1.957031 -34.429688 2.09375 -34.671875 C 2.226562 -34.910156 2.382812 -35.117188 2.5625 -35.296875 C 2.769531 -35.546875 3.015625 -35.734375 3.296875 -35.859375 C 3.585938 -35.992188 3.898438 -36.125 4.234375 -36.25 C 4.953125 -36.425781 5.734375 -36.515625 6.578125 -36.515625 C 6.992188 -36.515625 7.40625 -36.492188 7.8125 -36.453125 C 8.21875 -36.410156 8.628906 -36.359375 9.046875 -36.296875 C 11.328125 -35.847656 13.207031 -35.113281 14.6875 -34.09375 C 16.09375 -33.15625 17.082031 -32.03125 17.65625 -30.71875 C 18.132812 -29.664062 18.375 -28.644531 18.375 -27.65625 C 18.375 -27.53125 18.375 -27.390625 18.375 -27.234375 C 18.375 -27.085938 18.359375 -26.957031 18.328125 -26.84375 C 18.265625 -26.207031 18.132812 -25.570312 17.9375 -24.9375 C 17.75 -24.3125 17.488281 -23.710938 17.15625 -23.140625 L 17.109375 -22.96875 C 16.296875 -21.707031 15.066406 -20.550781 13.421875 -19.5 C 15.523438 -18.144531 17.039062 -16.613281 17.96875 -14.90625 L 18.015625 -14.71875 C 18.347656 -14.125 18.609375 -13.472656 18.796875 -12.765625 C 18.992188 -12.054688 19.125 -11.3125 19.1875 -10.53125 C 19.21875 -10.414062 19.234375 -10.289062 19.234375 -10.15625 C 19.234375 -10.019531 19.234375 -9.878906 19.234375 -9.734375 C 19.234375 -9.160156 19.171875 -8.578125 19.046875 -7.984375 C 18.929688 -7.398438 18.753906 -6.828125 18.515625 -6.265625 C 17.941406 -4.734375 16.945312 -3.472656 15.53125 -2.484375 C 14.09375 -1.304688 12.21875 -0.460938 9.90625 0.046875 C 9.488281 0.109375 9.078125 0.160156 8.671875 0.203125 C 8.265625 0.242188 7.851562 0.265625 7.4375 0.265625 Z M 8.46875 -22.609375 C 8.46875 -22.484375 8.46875 -22.351562 8.46875 -22.21875 C 8.46875 -22.082031 8.484375 -21.941406 8.515625 -21.796875 L 8.59375 -21.53125 C 8.925781 -21.5 9.289062 -21.40625 9.6875 -21.25 C 9.832031 -21.3125 10.003906 -21.394531 10.203125 -21.5 C 10.398438 -21.601562 10.644531 -21.75 10.9375 -21.9375 C 12.320312 -22.957031 13.238281 -24.15625 13.6875 -25.53125 C 13.894531 -26.132812 14 -26.75 14 -27.375 L 14 -28.046875 C 13.882812 -29.046875 13.492188 -29.925781 12.828125 -30.6875 C 12.171875 -31.457031 11.285156 -32.066406 10.171875 -32.515625 C 9.929688 -32.578125 9.722656 -32.628906 9.546875 -32.671875 C 9.367188 -32.710938 9.203125 -32.734375 9.046875 -32.734375 C 9.046875 -32.734375 9.035156 -32.722656 9.015625 -32.703125 C 9.003906 -32.691406 8.972656 -32.6875 8.921875 -32.6875 C 8.703125 -32.601562 8.582031 -32.441406 8.5625 -32.203125 C 8.5 -32.015625 8.46875 -31.832031 8.46875 -31.65625 L 8.46875 -31.296875 C 8.46875 -30.640625 8.488281 -29.960938 8.53125 -29.265625 C 8.570312 -28.578125 8.59375 -27.890625 8.59375 -27.203125 C 8.59375 -26.722656 8.585938 -26.21875 8.578125 -25.6875 C 8.566406 -25.164062 8.5625 -24.664062 8.5625 -24.1875 L 8.5625 -23.828125 C 8.53125 -23.765625 8.515625 -23.679688 8.515625 -23.578125 C 8.515625 -23.472656 8.515625 -23.390625 8.515625 -23.328125 L 8.515625 -23.28125 C 8.515625 -23.15625 8.503906 -23.03125 8.484375 -22.90625 C 8.472656 -22.789062 8.46875 -22.691406 8.46875 -22.609375 Z M 8.59375 -5.21875 C 8.59375 -4.976562 8.625 -4.738281 8.6875 -4.5 C 8.71875 -4.289062 8.851562 -4.125 9.09375 -4 C 9.15625 -4 9.203125 -3.992188 9.234375 -3.984375 C 9.265625 -3.972656 9.28125 -3.96875 9.28125 -3.96875 C 9.582031 -3.96875 10 -4.054688 10.53125 -4.234375 C 11.769531 -4.742188 12.769531 -5.429688 13.53125 -6.296875 C 14.300781 -7.171875 14.742188 -8.164062 14.859375 -9.28125 L 14.859375 -10 C 14.859375 -10.351562 14.832031 -10.703125 14.78125 -11.046875 C 14.738281 -11.398438 14.644531 -11.753906 14.5 -12.109375 C 14.257812 -12.828125 13.875 -13.523438 13.34375 -14.203125 C 12.820312 -14.878906 12.171875 -15.503906 11.390625 -16.078125 C 10.734375 -16.492188 10.238281 -16.75 9.90625 -16.84375 C 9.570312 -16.9375 9.378906 -16.984375 9.328125 -16.984375 L 9.28125 -16.984375 C 9.070312 -16.953125 8.921875 -16.859375 8.828125 -16.703125 C 8.734375 -16.554688 8.671875 -16.40625 8.640625 -16.25 C 8.609375 -16.132812 8.59375 -16 8.59375 -15.84375 C 8.59375 -15.695312 8.59375 -15.550781 8.59375 -15.40625 C 8.59375 -15.28125 8.597656 -15.140625 8.609375 -14.984375 C 8.628906 -14.835938 8.640625 -14.707031 8.640625 -14.59375 L 8.640625 -14.546875 C 8.640625 -14.484375 8.640625 -14.390625 8.640625 -14.265625 C 8.640625 -14.148438 8.65625 -14.0625 8.6875 -14 L 8.6875 -13.59375 C 8.6875 -13.03125 8.691406 -12.46875 8.703125 -11.90625 C 8.722656 -11.351562 8.734375 -10.773438 8.734375 -10.171875 C 8.734375 -9.421875 8.707031 -8.65625 8.65625 -7.875 C 8.613281 -7.09375 8.59375 -6.3125 8.59375 -5.53125 Z M 8.59375 -5.21875 "/></g></g></g><g fill="#f6f1e8" fill-opacity="1"><g transform="translate(207.501213, 202.499987)"><g><path d="M 4.734375 0 C 4.222656 0 3.769531 -0.160156 3.375 -0.484375 C 2.988281 -0.816406 2.675781 -1.195312 2.4375 -1.625 C 2.007812 -2.40625 1.796875 -3.378906 1.796875 -4.546875 L 1.796875 -5.359375 C 1.796875 -5.722656 1.800781 -6.09375 1.8125 -6.46875 C 1.832031 -6.84375 1.859375 -7.207031 1.890625 -7.5625 C 1.921875 -7.832031 1.9375 -8.078125 1.9375 -8.296875 C 1.9375 -8.523438 1.9375 -8.734375 1.9375 -8.921875 C 1.96875 -9.609375 1.984375 -10.28125 1.984375 -10.9375 C 1.984375 -11.601562 1.984375 -12.265625 1.984375 -12.921875 C 1.984375 -13.609375 1.972656 -14.28125 1.953125 -14.9375 C 1.941406 -15.601562 1.9375 -16.269531 1.9375 -16.9375 L 1.9375 -17.25 C 1.9375 -17.820312 1.925781 -18.363281 1.90625 -18.875 C 1.894531 -19.382812 1.890625 -19.863281 1.890625 -20.3125 C 1.890625 -21.175781 1.878906 -22.046875 1.859375 -22.921875 C 1.847656 -23.796875 1.84375 -24.664062 1.84375 -25.53125 L 1.84375 -25.796875 C 1.84375 -26.128906 1.832031 -26.453125 1.8125 -26.765625 C 1.800781 -27.085938 1.796875 -27.394531 1.796875 -27.6875 L 1.796875 -30.796875 C 1.796875 -31.035156 1.8125 -31.242188 1.84375 -31.421875 C 1.875 -31.609375 1.890625 -31.789062 1.890625 -31.96875 L 1.890625 -33.1875 C 1.890625 -33.519531 1.960938 -33.84375 2.109375 -34.15625 C 2.265625 -34.46875 2.445312 -34.726562 2.65625 -34.9375 C 3.070312 -35.425781 3.6875 -35.800781 4.5 -36.0625 C 5.21875 -36.28125 6.070312 -36.390625 7.0625 -36.390625 C 7.96875 -36.390625 8.882812 -36.296875 9.8125 -36.109375 C 11.039062 -35.816406 12.1875 -35.453125 13.25 -35.015625 C 14.320312 -34.578125 15.25 -34.039062 16.03125 -33.40625 C 17.59375 -32.269531 18.6875 -30.890625 19.3125 -29.265625 C 19.550781 -28.671875 19.742188 -28.050781 19.890625 -27.40625 C 20.046875 -26.757812 20.125 -26.117188 20.125 -25.484375 C 20.125 -25.335938 20.125 -25.1875 20.125 -25.03125 C 20.125 -24.882812 20.109375 -24.738281 20.078125 -24.59375 C 19.992188 -23.75 19.851562 -22.941406 19.65625 -22.171875 C 19.457031 -21.410156 19.164062 -20.6875 18.78125 -20 L 18.734375 -19.8125 C 18.253906 -18.914062 17.585938 -18.046875 16.734375 -17.203125 C 15.878906 -16.359375 14.894531 -15.59375 13.78125 -14.90625 L 14.40625 -12.96875 C 14.46875 -12.757812 14.554688 -12.554688 14.671875 -12.359375 C 14.796875 -12.160156 14.875 -11.941406 14.90625 -11.703125 C 15.113281 -11.140625 15.316406 -10.535156 15.515625 -9.890625 C 15.710938 -9.242188 15.835938 -8.785156 15.890625 -8.515625 C 15.953125 -8.242188 16.023438 -7.960938 16.109375 -7.671875 C 16.203125 -7.390625 16.3125 -7.082031 16.4375 -6.75 C 16.582031 -6.445312 16.726562 -6.140625 16.875 -5.828125 C 17.03125 -5.515625 17.195312 -5.238281 17.375 -5 C 17.625 -4.664062 17.875 -4.394531 18.125 -4.1875 C 18.382812 -3.976562 18.660156 -3.929688 18.953125 -4.046875 C 19.160156 -4.109375 19.382812 -4.101562 19.625 -4.03125 C 19.875 -3.957031 20.101562 -3.570312 20.3125 -2.875 C 20.582031 -2.1875 20.566406 -1.695312 20.265625 -1.40625 C 19.960938 -1.125 19.691406 -0.910156 19.453125 -0.765625 L 19.234375 -0.578125 C 18.453125 -0.0976562 17.6875 0.0820312 16.9375 -0.03125 C 16.1875 -0.15625 15.554688 -0.3125 15.046875 -0.5 C 13.992188 -1.007812 13.015625 -2.164062 12.109375 -3.96875 C 11.691406 -4.800781 11.347656 -5.597656 11.078125 -6.359375 C 10.804688 -7.128906 10.503906 -8 10.171875 -8.96875 L 9.8125 -10 L 9.328125 -11.265625 L 8.78125 -12.703125 L 8.375 -12.609375 C 8.375 -12.367188 8.378906 -12.113281 8.390625 -11.84375 C 8.410156 -11.570312 8.421875 -11.316406 8.421875 -11.078125 L 8.421875 -5.671875 C 8.421875 -4.679688 8.304688 -3.710938 8.078125 -2.765625 C 7.859375 -1.816406 7.628906 -1.179688 7.390625 -0.859375 C 6.910156 -0.285156 6.203125 0 5.265625 0 Z M 8.328125 -27.015625 C 8.296875 -26.691406 8.296875 -26.351562 8.328125 -26 C 8.359375 -25.65625 8.375 -25.320312 8.375 -25 L 8.328125 -22.78125 C 8.328125 -22.476562 8.332031 -22.160156 8.34375 -21.828125 C 8.363281 -21.503906 8.375 -21.175781 8.375 -20.84375 L 8.375 -18.0625 C 8.5 -17.757812 8.695312 -17.609375 8.96875 -17.609375 L 9 -17.609375 C 9.09375 -17.609375 9.316406 -17.648438 9.671875 -17.734375 C 10.035156 -17.828125 10.59375 -18.097656 11.34375 -18.546875 C 12.28125 -19.148438 13.03125 -19.828125 13.59375 -20.578125 C 14.164062 -21.328125 14.601562 -22.09375 14.90625 -22.875 C 15.175781 -23.6875 15.3125 -24.453125 15.3125 -25.171875 L 15.3125 -26.03125 C 15.15625 -27.226562 14.648438 -28.300781 13.796875 -29.25 C 12.941406 -30.195312 11.8125 -30.941406 10.40625 -31.484375 C 10.070312 -31.566406 9.800781 -31.628906 9.59375 -31.671875 C 9.382812 -31.722656 9.175781 -31.75 8.96875 -31.75 C 8.96875 -31.75 8.957031 -31.738281 8.9375 -31.71875 C 8.925781 -31.707031 8.890625 -31.703125 8.828125 -31.703125 C 8.554688 -31.578125 8.40625 -31.441406 8.375 -31.296875 L 8.421875 -30.390625 L 8.421875 -29.671875 L 8.328125 -27.0625 Z M 8.328125 -27.015625 "/></g></g></g><g fill="#f6f1e8" fill-opacity="1"><g transform="translate(229.78779, 202.499987)"><g><path d="M 4.734375 0 C 4.222656 0 3.769531 -0.160156 3.375 -0.484375 C 2.988281 -0.816406 2.675781 -1.195312 2.4375 -1.625 C 2.007812 -2.40625 1.796875 -3.394531 1.796875 -4.59375 L 1.796875 -5.359375 C 1.796875 -5.742188 1.800781 -6.117188 1.8125 -6.484375 C 1.832031 -6.847656 1.859375 -7.222656 1.890625 -7.609375 C 1.921875 -7.847656 1.9375 -8.085938 1.9375 -8.328125 C 1.9375 -8.566406 1.9375 -8.78125 1.9375 -8.96875 C 1.96875 -9.65625 1.984375 -10.328125 1.984375 -10.984375 C 1.984375 -11.648438 1.984375 -12.3125 1.984375 -12.96875 C 1.984375 -13.65625 1.972656 -14.328125 1.953125 -14.984375 C 1.941406 -15.648438 1.9375 -16.316406 1.9375 -16.984375 L 1.9375 -17.34375 C 1.90625 -17.875 1.890625 -18.394531 1.890625 -18.90625 C 1.890625 -19.414062 1.890625 -19.898438 1.890625 -20.359375 C 1.890625 -21.222656 1.890625 -22.097656 1.890625 -22.984375 C 1.890625 -23.867188 1.875 -24.75 1.84375 -25.625 L 1.84375 -25.890625 C 1.8125 -26.222656 1.796875 -26.546875 1.796875 -26.859375 C 1.796875 -27.171875 1.796875 -27.476562 1.796875 -27.78125 L 1.796875 -30.890625 C 1.796875 -31.253906 1.816406 -31.582031 1.859375 -31.875 C 1.910156 -32.175781 1.96875 -32.476562 2.03125 -32.78125 C 2.175781 -33.445312 2.398438 -33.972656 2.703125 -34.359375 C 2.972656 -34.691406 3.269531 -34.960938 3.59375 -35.171875 C 3.925781 -35.378906 4.304688 -35.484375 4.734375 -35.484375 L 5.265625 -35.484375 C 6.203125 -35.484375 6.910156 -35.195312 7.390625 -34.625 C 7.929688 -33.875 8.222656 -33.191406 8.265625 -32.578125 C 8.304688 -31.960938 8.359375 -31.265625 8.421875 -30.484375 L 8.421875 -29.765625 L 8.328125 -27.15625 C 8.328125 -26.132812 8.332031 -25.101562 8.34375 -24.0625 C 8.363281 -23.03125 8.375 -21.972656 8.375 -20.890625 L 8.375 -17.34375 C 8.375 -15.414062 8.378906 -13.472656 8.390625 -11.515625 C 8.410156 -9.566406 8.421875 -7.617188 8.421875 -5.671875 C 8.421875 -4.679688 8.304688 -3.710938 8.078125 -2.765625 C 7.859375 -1.816406 7.628906 -1.179688 7.390625 -0.859375 C 6.910156 -0.285156 6.203125 0 5.265625 0 Z M 4.734375 0 "/></g></g></g><g fill="#f6f1e8" fill-opacity="1"><g transform="translate(240.008096, 202.499987)"><g><path d="M 6.84375 0 C 5.945312 0 5.109375 -0.179688 4.328125 -0.546875 C 3.609375 -0.898438 3.019531 -1.46875 2.5625 -2.25 C 2.351562 -2.613281 2.179688 -3.023438 2.046875 -3.484375 C 1.910156 -3.953125 1.84375 -4.457031 1.84375 -5 L 1.84375 -6.21875 C 1.84375 -6.632812 1.84375 -7.050781 1.84375 -7.46875 C 1.84375 -7.894531 1.859375 -8.347656 1.890625 -8.828125 C 1.921875 -9.160156 1.9375 -9.484375 1.9375 -9.796875 C 1.9375 -10.109375 1.9375 -10.414062 1.9375 -10.71875 L 1.9375 -17.15625 C 1.9375 -19.53125 1.921875 -21.910156 1.890625 -24.296875 C 1.859375 -26.679688 1.84375 -29.03125 1.84375 -31.34375 L 1.84375 -31.484375 C 1.84375 -31.628906 1.832031 -31.753906 1.8125 -31.859375 C 1.800781 -31.960938 1.796875 -32.078125 1.796875 -32.203125 C 1.796875 -32.890625 1.867188 -33.507812 2.015625 -34.0625 C 2.171875 -34.625 2.351562 -35.097656 2.5625 -35.484375 C 2.800781 -35.867188 3.257812 -36.148438 3.9375 -36.328125 C 4.613281 -36.515625 5.328125 -36.625 6.078125 -36.65625 C 6.828125 -36.6875 7.410156 -36.65625 7.828125 -36.5625 C 8.460938 -36.445312 9.191406 -36.203125 10.015625 -35.828125 C 10.847656 -35.453125 11.757812 -34.78125 12.75 -33.8125 C 15.207031 -31.476562 16.976562 -28.78125 18.0625 -25.71875 L 18.0625 -25.671875 L 18.109375 -25.390625 C 18.796875 -23.296875 19.210938 -20.941406 19.359375 -18.328125 C 19.390625 -18.117188 19.40625 -17.894531 19.40625 -17.65625 C 19.40625 -17.414062 19.40625 -17.175781 19.40625 -16.9375 C 19.40625 -15.914062 19.335938 -14.914062 19.203125 -13.9375 C 19.066406 -12.957031 18.878906 -11.972656 18.640625 -10.984375 C 18.015625 -8.460938 16.960938 -6.332031 15.484375 -4.59375 C 13.898438 -2.695312 11.890625 -1.316406 9.453125 -0.453125 C 8.585938 -0.148438 7.71875 0 6.84375 0 Z M 8.234375 -7.296875 C 8.234375 -7.085938 8.238281 -6.863281 8.25 -6.625 C 8.269531 -6.382812 8.296875 -6.15625 8.328125 -5.9375 C 8.421875 -5.425781 8.585938 -5.097656 8.828125 -4.953125 L 8.828125 -4.90625 C 8.890625 -4.90625 8.925781 -4.894531 8.9375 -4.875 C 8.957031 -4.863281 8.976562 -4.859375 9 -4.859375 C 9.363281 -4.859375 9.847656 -5.054688 10.453125 -5.453125 C 11.890625 -6.441406 13.035156 -7.820312 13.890625 -9.59375 C 14.742188 -11.363281 15.234375 -13.390625 15.359375 -15.671875 C 15.390625 -15.941406 15.40625 -16.195312 15.40625 -16.4375 C 15.40625 -16.675781 15.40625 -16.929688 15.40625 -17.203125 C 15.40625 -18.609375 15.269531 -20.050781 15 -21.53125 C 14.394531 -24.613281 13.207031 -27.328125 11.4375 -29.671875 C 10.65625 -30.515625 10.082031 -31.023438 9.71875 -31.203125 C 9.363281 -31.390625 9.140625 -31.484375 9.046875 -31.484375 L 8.96875 -31.484375 C 8.75 -31.421875 8.585938 -31.226562 8.484375 -30.90625 C 8.378906 -30.59375 8.3125 -30.273438 8.28125 -29.953125 C 8.25 -29.679688 8.234375 -29.398438 8.234375 -29.109375 C 8.234375 -28.828125 8.234375 -28.519531 8.234375 -28.1875 C 8.234375 -27.914062 8.238281 -27.648438 8.25 -27.390625 C 8.269531 -27.140625 8.28125 -26.894531 8.28125 -26.65625 L 8.28125 -26.609375 C 8.28125 -26.398438 8.285156 -26.191406 8.296875 -25.984375 C 8.316406 -25.773438 8.328125 -25.578125 8.328125 -25.390625 L 8.328125 -24.625 C 8.328125 -23.457031 8.332031 -22.28125 8.34375 -21.09375 C 8.363281 -19.90625 8.375 -18.742188 8.375 -17.609375 C 8.375 -16.046875 8.347656 -14.453125 8.296875 -12.828125 C 8.253906 -11.210938 8.234375 -9.609375 8.234375 -8.015625 Z M 8.234375 -7.296875 "/></g></g></g><g fill="#f6f1e8" fill-opacity="1"><g transform="translate(261.214111, 202.499987)"><g><path d="M 11.484375 0 C 8.660156 0 6.5 -1.332031 5 -4 C 4.007812 -5.6875 3.242188 -7.957031 2.703125 -10.8125 C 2.578125 -11.5 2.429688 -12.273438 2.265625 -13.140625 C 2.109375 -14.015625 2 -14.914062 1.9375 -15.84375 C 1.84375 -16.894531 1.796875 -17.890625 1.796875 -18.828125 C 1.796875 -19.210938 1.800781 -19.597656 1.8125 -19.984375 C 1.832031 -20.378906 1.859375 -20.785156 1.890625 -21.203125 L 1.9375 -21.34375 C 2 -22.394531 2.101562 -23.429688 2.25 -24.453125 C 2.40625 -25.472656 2.601562 -26.460938 2.84375 -27.421875 C 3.40625 -29.703125 4.3125 -31.546875 5.5625 -32.953125 C 6.8125 -34.367188 8.347656 -35.285156 10.171875 -35.703125 C 10.984375 -35.921875 11.8125 -36.03125 12.65625 -36.03125 C 13.519531 -36.03125 14.359375 -35.921875 15.171875 -35.703125 C 16.890625 -35.316406 18.226562 -34.3125 19.1875 -32.6875 L 19.234375 -32.6875 C 20.160156 -30.945312 20.65625 -28.800781 20.71875 -26.25 L 20.765625 -25.9375 L 20.765625 -25.890625 C 20.785156 -25.585938 20.796875 -25.296875 20.796875 -25.015625 C 20.796875 -24.734375 20.796875 -24.457031 20.796875 -24.1875 L 20.796875 -24.140625 C 20.742188 -23.566406 20.535156 -23.097656 20.171875 -22.734375 C 20.140625 -22.734375 20.125 -22.722656 20.125 -22.703125 C 19.769531 -22.429688 19.320312 -22.296875 18.78125 -22.296875 L 18.6875 -22.296875 C 18.082031 -22.316406 17.601562 -22.539062 17.25 -22.96875 C 16.945312 -23.351562 16.796875 -23.785156 16.796875 -24.265625 L 16.796875 -24.59375 C 16.796875 -24.976562 16.78125 -25.425781 16.75 -25.9375 C 16.71875 -26.445312 16.660156 -27.03125 16.578125 -27.6875 C 16.421875 -29.007812 16.054688 -30.078125 15.484375 -30.890625 L 15.484375 -30.9375 C 15.035156 -31.625 14.363281 -31.96875 13.46875 -31.96875 C 13.4375 -31.96875 13.375 -31.96875 13.28125 -31.96875 C 13.195312 -31.96875 13.125 -31.953125 13.0625 -31.921875 L 13.015625 -31.921875 C 12.503906 -31.835938 11.96875 -31.582031 11.40625 -31.15625 C 10.851562 -30.738281 10.335938 -30.050781 9.859375 -29.09375 C 9.378906 -28.132812 9.019531 -26.796875 8.78125 -25.078125 C 8.507812 -23.242188 8.375 -21.550781 8.375 -20 L 8.375 -19.765625 C 8.375 -18.804688 8.394531 -17.988281 8.4375 -17.3125 C 8.488281 -16.632812 8.539062 -16.039062 8.59375 -15.53125 C 8.65625 -14.90625 8.753906 -14.109375 8.890625 -13.140625 C 9.023438 -12.179688 9.210938 -11.160156 9.453125 -10.078125 C 9.691406 -9.003906 10.019531 -7.976562 10.4375 -7 C 10.863281 -6.019531 11.390625 -5.21875 12.015625 -4.59375 C 12.285156 -4.289062 12.617188 -4.140625 13.015625 -4.140625 C 13.398438 -4.140625 13.820312 -4.320312 14.28125 -4.6875 C 15.238281 -5.550781 15.910156 -6.8125 16.296875 -8.46875 C 16.484375 -9.25 16.601562 -10.050781 16.65625 -10.875 C 16.71875 -11.695312 16.75 -12.457031 16.75 -13.15625 L 16.75 -13.234375 C 16.78125 -13.359375 16.796875 -13.460938 16.796875 -13.546875 C 16.796875 -13.640625 16.796875 -13.75 16.796875 -13.875 C 16.796875 -14.675781 16.675781 -15.210938 16.4375 -15.484375 L 16.4375 -15.53125 C 16.132812 -15.957031 15.503906 -16.226562 14.546875 -16.34375 L 14.5 -16.34375 C 14.195312 -16.40625 13.925781 -16.476562 13.6875 -16.5625 C 13.445312 -16.65625 13.207031 -16.765625 12.96875 -16.890625 C 12.488281 -17.160156 12.25 -17.640625 12.25 -18.328125 L 12.25 -18.6875 C 12.425781 -19.5625 12.984375 -20.085938 13.921875 -20.265625 C 14.484375 -20.378906 15.113281 -20.4375 15.8125 -20.4375 L 16.53125 -20.4375 C 16.644531 -20.46875 16.753906 -20.484375 16.859375 -20.484375 C 16.960938 -20.484375 17.0625 -20.484375 17.15625 -20.484375 C 18.445312 -20.484375 19.378906 -20.242188 19.953125 -19.765625 C 20.546875 -19.191406 20.890625 -18.050781 20.984375 -16.34375 C 21.015625 -16.132812 21.03125 -15.910156 21.03125 -15.671875 C 21.03125 -15.429688 21.03125 -15.191406 21.03125 -14.953125 C 21.03125 -14.203125 21.003906 -13.488281 20.953125 -12.8125 C 20.910156 -12.132812 20.859375 -11.484375 20.796875 -10.859375 C 20.742188 -9.890625 20.625 -8.945312 20.4375 -8.03125 C 20.257812 -7.125 20.003906 -6.265625 19.671875 -5.453125 L 19.671875 -5.40625 C 18.472656 -2.488281 16.328125 -0.734375 13.234375 -0.140625 L 13.1875 -0.140625 C 12.625 -0.046875 12.054688 0 11.484375 0 Z M 11.484375 0 "/></g></g></g><g fill="#f6f1e8" fill-opacity="1"><g transform="translate(284.040964, 202.499987)"><g><path d="M 11.390625 0 C 11.179688 0 10.972656 0 10.765625 0 C 10.554688 0 10.332031 -0.015625 10.09375 -0.046875 C 8.5 -0.046875 7.128906 -0.222656 5.984375 -0.578125 L 5.9375 -0.578125 C 5.28125 -0.828125 4.71875 -1.175781 4.25 -1.625 C 3.789062 -2.070312 3.394531 -2.613281 3.0625 -3.25 C 2.757812 -3.875 2.53125 -4.535156 2.375 -5.234375 C 2.226562 -5.941406 2.128906 -6.628906 2.078125 -7.296875 C 1.859375 -8.703125 1.765625 -10.1875 1.796875 -11.75 C 1.828125 -13.3125 1.859375 -14.921875 1.890625 -16.578125 L 1.9375 -16.9375 C 1.96875 -18.613281 1.957031 -20.300781 1.90625 -22 C 1.863281 -23.695312 1.875 -25.335938 1.9375 -26.921875 L 2.15625 -30.671875 L 2.15625 -31.296875 C 2.1875 -32.734375 2.398438 -33.8125 2.796875 -34.53125 C 3.210938 -35.289062 3.859375 -35.742188 4.734375 -35.890625 C 5.179688 -35.984375 5.734375 -36.03125 6.390625 -36.03125 L 9.6875 -36.03125 C 10.195312 -36.03125 10.800781 -36.03125 11.5 -36.03125 C 12.207031 -36.03125 12.898438 -35.988281 13.578125 -35.90625 C 14.253906 -35.832031 14.847656 -35.675781 15.359375 -35.4375 C 15.867188 -35.195312 16.179688 -34.820312 16.296875 -34.3125 C 16.359375 -34.164062 16.390625 -33.972656 16.390625 -33.734375 C 16.390625 -33.273438 16.195312 -32.851562 15.8125 -32.46875 C 15.570312 -32.195312 15.25 -31.976562 14.84375 -31.8125 C 14.4375 -31.644531 13.898438 -31.5625 13.234375 -31.5625 L 11.4375 -31.5625 C 11.34375 -31.5625 11.242188 -31.566406 11.140625 -31.578125 C 11.035156 -31.597656 10.925781 -31.609375 10.8125 -31.609375 C 10.207031 -31.609375 9.679688 -31.519531 9.234375 -31.34375 C 8.753906 -31.101562 8.484375 -30.394531 8.421875 -29.21875 L 8.421875 -28.78125 C 8.390625 -27.726562 8.34375 -26.679688 8.28125 -25.640625 C 8.226562 -24.609375 8.1875 -23.566406 8.15625 -22.515625 L 8.15625 -22.46875 C 8.15625 -22.375 8.15625 -22.273438 8.15625 -22.171875 C 8.15625 -22.066406 8.125 -21.941406 8.0625 -21.796875 C 8.0625 -21.671875 8.0625 -21.5625 8.0625 -21.46875 C 8.0625 -21.382812 8.046875 -21.285156 8.015625 -21.171875 C 8.015625 -20.679688 8.050781 -20.347656 8.125 -20.171875 C 8.195312 -19.992188 8.265625 -19.875 8.328125 -19.8125 L 8.375 -19.765625 C 8.550781 -19.679688 8.820312 -19.640625 9.1875 -19.640625 L 9.734375 -19.640625 C 9.878906 -19.660156 10.019531 -19.671875 10.15625 -19.671875 C 10.289062 -19.671875 10.445312 -19.671875 10.625 -19.671875 C 10.6875 -19.671875 10.753906 -19.675781 10.828125 -19.6875 C 10.898438 -19.707031 10.984375 -19.71875 11.078125 -19.71875 L 12.96875 -19.71875 C 13.238281 -19.71875 13.523438 -19.695312 13.828125 -19.65625 C 14.128906 -19.613281 14.367188 -19.484375 14.546875 -19.265625 L 14.59375 -19.234375 C 15.039062 -18.773438 15.265625 -18.234375 15.265625 -17.609375 C 15.265625 -17.515625 15.265625 -17.414062 15.265625 -17.3125 C 15.265625 -17.207031 15.234375 -17.097656 15.171875 -16.984375 C 15.054688 -16.679688 14.863281 -16.347656 14.59375 -15.984375 C 14.320312 -15.628906 13.84375 -15.453125 13.15625 -15.453125 L 12.78125 -15.453125 C 12.664062 -15.453125 12.523438 -15.453125 12.359375 -15.453125 C 12.191406 -15.453125 12.019531 -15.460938 11.84375 -15.484375 L 9.734375 -15.484375 C 9.335938 -15.484375 8.9375 -15.445312 8.53125 -15.375 C 8.125 -15.300781 7.921875 -15.054688 7.921875 -14.640625 L 7.875 -13.375 C 7.875 -13.28125 7.890625 -13.007812 7.921875 -12.5625 C 7.953125 -12.113281 7.988281 -11.601562 8.03125 -11.03125 C 8.082031 -10.457031 8.128906 -9.921875 8.171875 -9.421875 C 8.210938 -8.929688 8.25 -8.582031 8.28125 -8.375 C 8.28125 -8.3125 8.285156 -8.25 8.296875 -8.1875 C 8.316406 -8.132812 8.328125 -8.0625 8.328125 -7.96875 C 8.597656 -5.957031 9.425781 -4.785156 10.8125 -4.453125 C 11.050781 -4.421875 11.289062 -4.40625 11.53125 -4.40625 C 11.769531 -4.40625 12.007812 -4.40625 12.25 -4.40625 C 12.519531 -4.40625 12.773438 -4.40625 13.015625 -4.40625 C 13.253906 -4.40625 13.492188 -4.421875 13.734375 -4.453125 L 15 -4.546875 L 15.046875 -4.546875 C 15.941406 -4.546875 16.570312 -4.203125 16.9375 -3.515625 C 16.9375 -3.515625 16.941406 -3.515625 16.953125 -3.515625 C 16.972656 -3.515625 16.984375 -3.5 16.984375 -3.46875 C 17.191406 -3.101562 17.296875 -2.757812 17.296875 -2.4375 C 17.296875 -2.28125 17.265625 -2.113281 17.203125 -1.9375 C 17.140625 -1.757812 17.066406 -1.5625 16.984375 -1.34375 L 16.984375 -1.3125 C 16.472656 -0.613281 15.570312 -0.207031 14.28125 -0.09375 C 13.882812 -0.0625 13.4375 -0.0351562 12.9375 -0.015625 C 12.445312 -0.00390625 11.929688 0 11.390625 0 Z M 11.390625 0 "/></g></g></g></svg>